<svg width="822" height="822" viewBox="0 0 822 822" fill="none" xmlns="http://www.w3.org/2000/svg">
<rect width="822" height="822" fill="#1B1A1D"/>
<path d="M523.544 444.798V389.161H540.102V399.609H540.439C541.884 395.91 544.065 393.094 546.986 391.161C549.906 389.194 553.42 388.211 557.527 388.211C563.497 388.211 568.166 390.061 571.535 393.76C574.937 397.459 576.637 402.591 576.637 409.156V444.798H559.549V412.955C559.549 409.723 558.732 407.207 557.094 405.407C555.489 403.574 553.228 402.658 550.307 402.658C547.419 402.658 545.076 403.658 543.279 405.657C541.483 407.657 540.583 410.239 540.583 413.405V444.798H523.544Z" fill="#F7F7F7"/>
<path d="M520.458 389.163L506.594 444.799H488.207L479.59 407.058H479.253L470.686 444.799H452.586L438.674 389.163H455.858L462.839 428.703H463.176L471.552 389.163H487.821L496.293 428.703H496.63L503.61 389.163H520.458Z" fill="#F7F7F7"/>
<path d="M430.831 438.349C425.986 443.448 419.311 445.997 410.806 445.997C402.303 445.997 395.628 443.448 390.781 438.349C385.935 433.217 383.514 426.085 383.514 416.954C383.514 407.99 385.969 400.925 390.878 395.759C395.788 390.561 402.43 387.962 410.806 387.962C419.215 387.962 425.857 390.544 430.735 395.71C435.645 400.842 438.1 407.923 438.1 416.954C438.1 426.119 435.676 433.25 430.831 438.349ZM403.441 428.802C405.206 431.567 407.661 432.951 410.806 432.951C413.95 432.951 416.405 431.567 418.171 428.802C419.936 426.002 420.819 422.053 420.819 416.954C420.819 411.989 419.92 408.09 418.124 405.257C416.325 402.425 413.888 401.008 410.806 401.008C407.693 401.008 405.238 402.425 403.441 405.257C401.676 408.057 400.794 411.956 400.794 416.954C400.794 422.053 401.676 426.002 403.441 428.802Z" fill="#F7F7F7"/>
<path d="M325.744 444.798V389.161H342.303V399.609H342.64C344.084 395.91 346.266 393.094 349.187 391.161C352.107 389.194 355.621 388.211 359.729 388.211C365.697 388.211 370.367 390.061 373.736 393.76C377.138 397.459 378.839 402.591 378.839 409.156V444.798H361.75V412.955C361.75 409.723 360.932 407.207 359.295 405.407C357.691 403.574 355.428 402.658 352.508 402.658C349.62 402.658 347.277 403.658 345.48 405.657C343.683 407.657 342.785 410.239 342.785 413.405V444.798H325.744Z" fill="#F7F7F7"/>
<path d="M294.79 400.558C292.063 400.558 289.768 401.508 287.907 403.408C286.046 405.307 285.003 407.74 284.778 410.706H304.706C304.546 407.64 303.551 405.191 301.722 403.358C299.925 401.492 297.614 400.558 294.79 400.558ZM305.092 427.302H320.495C319.661 433 316.949 437.549 312.36 440.949C307.803 444.314 302.059 445.997 295.127 445.997C286.655 445.997 280.013 443.448 275.199 438.349C270.385 433.25 267.979 426.219 267.979 417.254C267.979 408.29 270.369 401.175 275.151 395.909C279.932 390.611 286.399 387.962 294.55 387.962C302.54 387.962 308.91 390.494 313.66 395.56C318.441 400.592 320.832 407.34 320.832 415.805V420.853H284.586V421.953C284.586 425.352 285.58 428.118 287.57 430.251C289.56 432.351 292.159 433.4 295.368 433.4C297.743 433.4 299.797 432.867 301.53 431.801C303.263 430.701 304.45 429.201 305.092 427.302Z" fill="#F7F7F7"/>
<path d="M225.666 386.513V407.008H236.112C239.353 407.008 241.888 406.092 243.717 404.259C245.546 402.426 246.461 399.943 246.461 396.811C246.461 393.712 245.514 391.229 243.621 389.363C241.728 387.463 239.208 386.513 236.063 386.513H225.666ZM225.666 419.555V444.799H208V372.667H237.845C246.445 372.667 253.04 374.749 257.629 378.915C262.218 383.081 264.512 388.929 264.512 396.461C264.512 400.993 263.469 405.109 261.383 408.808C259.297 412.474 256.393 415.156 252.671 416.856L266.534 444.799H246.702L234.812 419.555H225.666Z" fill="#F7F7F7"/>
<path d="M594.77 337.244C590.995 350.519 580.931 360.983 568.164 364.892C566.563 365.386 566.563 367.724 568.164 368.218C580.924 372.127 590.995 382.591 594.77 395.865C595.241 397.525 597.522 397.525 598.002 395.865C601.775 382.591 611.841 372.127 624.608 368.218C626.209 367.724 626.209 365.386 624.608 364.892C611.848 360.983 601.775 350.519 598.002 337.244C597.53 335.585 595.248 335.585 594.77 337.244Z" fill="white"/>
</svg>
