<svg xmlns="http://www.w3.org/2000/svg" viewBox="0 0 280 210" width="280" height="210" role="img" aria-label="Distyra"><circle cx="77.7" cy="34.8" r="2.55" fill="#0D0F14" opacity="1.00"></circle><circle cx="61.3" cy="31.7" r="1.50" fill="#0D0F14" opacity="0.18"></circle><circle cx="76.2" cy="34.2" r="1.59" fill="#0D0F14" opacity="0.23"></circle><circle cx="82.9" cy="29.7" r="1.68" fill="#0D0F14" opacity="0.28"></circle><circle cx="102.0" cy="33.1" r="2.55" fill="#0D0F14" opacity="1.00"></circle><circle cx="107.5" cy="33.7" r="2.55" fill="#0D0F14" opacity="1.00"></circle><circle cx="114.2" cy="33.3" r="2.55" fill="#0D0F14" opacity="1.00"></circle><circle cx="119.4" cy="33.6" r="2.55" fill="#0D0F14" opacity="1.00"></circle><circle cx="125.2" cy="33.6" r="2.55" fill="#0D0F14" opacity="1.00"></circle><circle cx="131.0" cy="33.6" r="2.55" fill="#0D0F14" opacity="1.00"></circle><circle cx="136.8" cy="33.6" r="2.55" fill="#0D0F14" opacity="1.00"></circle><circle cx="142.6" cy="33.6" r="2.55" fill="#0D0F14" opacity="1.00"></circle><circle cx="148.4" cy="33.6" r="2.55" fill="#0D0F14" opacity="1.00"></circle><circle cx="56.3" cy="30.2" r="1.41" fill="#0D0F14" opacity="0.16"></circle><circle cx="85.2" cy="39.1" r="2.55" fill="#0D0F14" opacity="1.00"></circle><circle cx="90.3" cy="40.4" r="2.55" fill="#0D0F14" opacity="1.00"></circle><circle cx="73.3" cy="36.1" r="1.68" fill="#0D0F14" opacity="0.28"></circle><circle cx="101.4" cy="38.8" r="2.55" fill="#0D0F14" opacity="1.00"></circle><circle cx="107.5" cy="38.9" r="2.55" fill="#0D0F14" opacity="1.00"></circle><circle cx="113.4" cy="38.8" r="2.55" fill="#0D0F14" opacity="1.00"></circle><circle cx="119.4" cy="39.4" r="2.55" fill="#0D0F14" opacity="1.00"></circle><circle cx="125.2" cy="39.4" r="2.55" fill="#0D0F14" opacity="1.00"></circle><circle cx="131.0" cy="39.4" r="2.55" fill="#0D0F14" opacity="1.00"></circle><circle cx="136.8" cy="39.4" r="2.55" fill="#0D0F14" opacity="1.00"></circle><circle cx="142.6" cy="39.4" r="2.55" fill="#0D0F14" opacity="1.00"></circle><circle cx="148.4" cy="39.4" r="2.55" fill="#0D0F14" opacity="1.00"></circle><circle cx="154.2" cy="39.4" r="2.55" fill="#0D0F14" opacity="1.00"></circle><circle cx="160.0" cy="39.4" r="2.55" fill="#0D0F14" opacity="1.00"></circle><circle cx="44.5" cy="43.2" r="1.41" fill="#0D0F14" opacity="0.16"></circle><circle cx="55.4" cy="46.5" r="1.50" fill="#0D0F14" opacity="0.18"></circle><circle cx="89.8" cy="44.1" r="2.55" fill="#0D0F14" opacity="1.00"></circle><circle cx="97.1" cy="45.8" r="2.55" fill="#0D0F14" opacity="1.00"></circle><circle cx="101.2" cy="45.4" r="2.55" fill="#0D0F14" opacity="1.00"></circle><circle cx="108.1" cy="46.0" r="2.55" fill="#0D0F14" opacity="1.00"></circle><circle cx="114.2" cy="45.4" r="2.55" fill="#0D0F14" opacity="1.00"></circle><circle cx="119.4" cy="45.2" r="2.55" fill="#0D0F14" opacity="1.00"></circle><circle cx="125.2" cy="45.2" r="2.55" fill="#0D0F14" opacity="1.00"></circle><circle cx="131.0" cy="45.2" r="2.55" fill="#0D0F14" opacity="1.00"></circle><circle cx="136.8" cy="45.2" r="2.55" fill="#0D0F14" opacity="1.00"></circle><circle cx="142.6" cy="45.2" r="2.55" fill="#0D0F14" opacity="1.00"></circle><circle cx="148.4" cy="45.2" r="2.55" fill="#0D0F14" opacity="1.00"></circle><circle cx="154.2" cy="45.2" r="2.55" fill="#0D0F14" opacity="1.00"></circle><circle cx="160.0" cy="45.2" r="2.55" fill="#0D0F14" opacity="1.00"></circle><circle cx="165.8" cy="45.2" r="2.55" fill="#0D0F14" opacity="1.00"></circle><circle cx="171.6" cy="45.2" r="2.55" fill="#0D0F14" opacity="1.00"></circle><circle cx="63.8" cy="44.7" r="1.41" fill="#0D0F14" opacity="0.16"></circle><circle cx="83.5" cy="50.1" r="2.55" fill="#0D0F14" opacity="1.00"></circle><circle cx="57.7" cy="38.8" r="1.59" fill="#0D0F14" opacity="0.23"></circle><circle cx="96.0" cy="51.0" r="2.55" fill="#0D0F14" opacity="1.00"></circle><circle cx="101.8" cy="50.8" r="2.55" fill="#0D0F14" opacity="1.00"></circle><circle cx="108.1" cy="51.5" r="2.55" fill="#0D0F14" opacity="1.00"></circle><circle cx="114.0" cy="50.9" r="2.55" fill="#0D0F14" opacity="1.00"></circle><circle cx="119.4" cy="51.0" r="2.55" fill="#0D0F14" opacity="1.00"></circle><circle cx="125.2" cy="51.0" r="2.55" fill="#0D0F14" opacity="1.00"></circle><circle cx="131.0" cy="51.0" r="2.55" fill="#0D0F14" opacity="1.00"></circle><circle cx="136.8" cy="51.0" r="2.55" fill="#0D0F14" opacity="1.00"></circle><circle cx="142.6" cy="51.0" r="2.55" fill="#0D0F14" opacity="1.00"></circle><circle cx="148.4" cy="51.0" r="2.55" fill="#0D0F14" opacity="1.00"></circle><circle cx="154.2" cy="51.0" r="2.55" fill="#0D0F14" opacity="1.00"></circle><circle cx="160.0" cy="51.0" r="2.55" fill="#0D0F14" opacity="1.00"></circle><circle cx="165.8" cy="51.0" r="2.55" fill="#0D0F14" opacity="1.00"></circle><circle cx="171.6" cy="51.0" r="2.55" fill="#0D0F14" opacity="1.00"></circle><circle cx="177.4" cy="51.0" r="2.55" fill="#0D0F14" opacity="1.00"></circle><circle cx="48.3" cy="54.0" r="1.41" fill="#0D0F14" opacity="0.16"></circle><circle cx="52.2" cy="53.6" r="1.50" fill="#0D0F14" opacity="0.18"></circle><circle cx="89.5" cy="57.2" r="2.55" fill="#0D0F14" opacity="1.00"></circle><circle cx="67.1" cy="52.3" r="1.68" fill="#0D0F14" opacity="0.28"></circle><circle cx="148.4" cy="56.8" r="2.55" fill="#0D0F14" opacity="1.00"></circle><circle cx="154.2" cy="56.8" r="2.55" fill="#0D0F14" opacity="1.00"></circle><circle cx="160.0" cy="56.8" r="2.55" fill="#0D0F14" opacity="1.00"></circle><circle cx="165.8" cy="56.8" r="2.55" fill="#0D0F14" opacity="1.00"></circle><circle cx="171.6" cy="56.8" r="2.55" fill="#0D0F14" opacity="1.00"></circle><circle cx="177.4" cy="56.8" r="2.55" fill="#0D0F14" opacity="1.00"></circle><circle cx="183.2" cy="56.8" r="2.55" fill="#0D0F14" opacity="1.00"></circle><circle cx="79.4" cy="62.5" r="2.55" fill="#0D0F14" opacity="1.00"></circle><circle cx="60.5" cy="70.6" r="1.50" fill="#0D0F14" opacity="0.18"></circle><circle cx="78.3" cy="58.5" r="1.59" fill="#0D0F14" opacity="0.23"></circle><circle cx="96.2" cy="62.4" r="2.55" fill="#0D0F14" opacity="1.00"></circle><circle cx="160.0" cy="62.6" r="2.55" fill="#0D0F14" opacity="1.00"></circle><circle cx="165.8" cy="62.6" r="2.55" fill="#0D0F14" opacity="1.00"></circle><circle cx="171.6" cy="62.6" r="2.55" fill="#0D0F14" opacity="1.00"></circle><circle cx="177.4" cy="62.6" r="2.55" fill="#0D0F14" opacity="1.00"></circle><circle cx="183.2" cy="62.6" r="2.55" fill="#0D0F14" opacity="1.00"></circle><circle cx="189.0" cy="62.6" r="2.55" fill="#0D0F14" opacity="1.00"></circle><circle cx="60.9" cy="69.8" r="1.41" fill="#0D0F14" opacity="0.16"></circle><circle cx="85.3" cy="68.9" r="2.55" fill="#0D0F14" opacity="1.00"></circle><circle cx="90.3" cy="69.4" r="2.55" fill="#0D0F14" opacity="1.00"></circle><circle cx="95.4" cy="68.2" r="2.55" fill="#0D0F14" opacity="1.00"></circle><circle cx="165.8" cy="68.4" r="2.55" fill="#0D0F14" opacity="1.00"></circle><circle cx="171.6" cy="68.4" r="2.55" fill="#0D0F14" opacity="1.00"></circle><circle cx="177.4" cy="68.4" r="2.55" fill="#0D0F14" opacity="1.00"></circle><circle cx="183.2" cy="68.4" r="2.55" fill="#0D0F14" opacity="1.00"></circle><circle cx="189.0" cy="68.4" r="2.55" fill="#0D0F14" opacity="1.00"></circle><circle cx="42.4" cy="67.5" r="1.41" fill="#0D0F14" opacity="0.16"></circle><circle cx="58.0" cy="70.2" r="1.50" fill="#0D0F14" opacity="0.18"></circle><circle cx="89.6" cy="75.3" r="2.55" fill="#0D0F14" opacity="1.00"></circle><circle cx="82.9" cy="74.4" r="1.68" fill="#0D0F14" opacity="0.28"></circle><circle cx="171.6" cy="74.2" r="2.55" fill="#0D0F14" opacity="1.00"></circle><circle cx="177.4" cy="74.2" r="2.55" fill="#0D0F14" opacity="1.00"></circle><circle cx="183.2" cy="74.2" r="2.55" fill="#0D0F14" opacity="1.00"></circle><circle cx="189.0" cy="74.2" r="2.55" fill="#0D0F14" opacity="1.00"></circle><circle cx="194.8" cy="74.2" r="2.55" fill="#0D0F14" opacity="1.00"></circle><circle cx="48.0" cy="71.4" r="1.41" fill="#0D0F14" opacity="0.16"></circle><circle cx="73.5" cy="80.9" r="1.50" fill="#0D0F14" opacity="0.18"></circle><circle cx="61.1" cy="69.3" r="1.59" fill="#0D0F14" opacity="0.23"></circle><circle cx="95.9" cy="79.1" r="2.55" fill="#0D0F14" opacity="1.00"></circle><circle cx="171.6" cy="80.0" r="2.55" fill="#0D0F14" opacity="1.00"></circle><circle cx="177.4" cy="80.0" r="2.55" fill="#0D0F14" opacity="1.00"></circle><circle cx="183.2" cy="80.0" r="2.55" fill="#0D0F14" opacity="1.00"></circle><circle cx="189.0" cy="80.0" r="2.55" fill="#0D0F14" opacity="1.00"></circle><circle cx="194.8" cy="80.0" r="2.55" fill="#0D0F14" opacity="1.00"></circle><circle cx="49.3" cy="81.5" r="1.41" fill="#0D0F14" opacity="0.16"></circle><circle cx="84.6" cy="86.0" r="2.55" fill="#0D0F14" opacity="1.00"></circle><circle cx="71.5" cy="89.2" r="1.59" fill="#0D0F14" opacity="0.23"></circle><circle cx="96.7" cy="85.8" r="2.55" fill="#0D0F14" opacity="1.00"></circle><circle cx="177.4" cy="85.8" r="2.55" fill="#0D0F14" opacity="1.00"></circle><circle cx="183.2" cy="85.8" r="2.55" fill="#0D0F14" opacity="1.00"></circle><circle cx="189.0" cy="85.8" r="2.55" fill="#0D0F14" opacity="1.00"></circle><circle cx="194.8" cy="85.8" r="2.55" fill="#0D0F14" opacity="1.00"></circle><circle cx="48.3" cy="86.8" r="1.41" fill="#0D0F14" opacity="0.16"></circle><circle cx="73.8" cy="94.0" r="1.50" fill="#0D0F14" opacity="0.18"></circle><circle cx="89.8" cy="91.6" r="2.55" fill="#0D0F14" opacity="1.00"></circle><circle cx="96.9" cy="92.6" r="2.55" fill="#0D0F14" opacity="1.00"></circle><circle cx="177.4" cy="91.6" r="2.55" fill="#0D0F14" opacity="1.00"></circle><circle cx="183.2" cy="91.6" r="2.55" fill="#0D0F14" opacity="1.00"></circle><circle cx="189.0" cy="91.6" r="2.55" fill="#0D0F14" opacity="1.00"></circle><circle cx="194.8" cy="91.6" r="2.55" fill="#0D0F14" opacity="1.00"></circle><circle cx="200.6" cy="91.6" r="2.55" fill="#0D0F14" opacity="1.00"></circle><circle cx="52.6" cy="101.8" r="1.41" fill="#0D0F14" opacity="0.16"></circle><circle cx="72.7" cy="98.8" r="1.50" fill="#0D0F14" opacity="0.18"></circle><circle cx="90.5" cy="97.3" r="2.55" fill="#0D0F14" opacity="1.00"></circle><circle cx="70.4" cy="102.7" r="1.68" fill="#0D0F14" opacity="0.28"></circle><circle cx="177.4" cy="97.4" r="2.55" fill="#0D0F14" opacity="1.00"></circle><circle cx="183.2" cy="97.4" r="2.55" fill="#0D0F14" opacity="1.00"></circle><circle cx="189.0" cy="97.4" r="2.55" fill="#0D0F14" opacity="1.00"></circle><circle cx="194.8" cy="97.4" r="2.55" fill="#0D0F14" opacity="1.00"></circle><circle cx="200.6" cy="97.4" r="2.55" fill="#0D0F14" opacity="1.00"></circle><circle cx="39.4" cy="93.3" r="1.41" fill="#0D0F14" opacity="0.16"></circle><circle cx="74.5" cy="105.3" r="1.50" fill="#0D0F14" opacity="0.18"></circle><circle cx="61.6" cy="97.6" r="1.59" fill="#0D0F14" opacity="0.23"></circle><circle cx="95.9" cy="103.6" r="2.55" fill="#0D0F14" opacity="1.00"></circle><circle cx="177.4" cy="103.2" r="2.55" fill="#0D0F14" opacity="1.00"></circle><circle cx="183.2" cy="103.2" r="2.55" fill="#0D0F14" opacity="1.00"></circle><circle cx="189.0" cy="103.2" r="2.55" fill="#0D0F14" opacity="1.00"></circle><circle cx="194.8" cy="103.2" r="2.55" fill="#0D0F14" opacity="1.00"></circle><circle cx="200.6" cy="103.2" r="2.55" fill="#0D0F14" opacity="1.00"></circle><circle cx="57.5" cy="113.9" r="1.41" fill="#0D0F14" opacity="0.16"></circle><circle cx="84.3" cy="109.4" r="2.55" fill="#0D0F14" opacity="1.00"></circle><circle cx="68.7" cy="113.4" r="1.59" fill="#0D0F14" opacity="0.23"></circle><circle cx="96.4" cy="108.5" r="2.55" fill="#0D0F14" opacity="1.00"></circle><circle cx="177.4" cy="109.0" r="2.55" fill="#0D0F14" opacity="1.00"></circle><circle cx="183.2" cy="109.0" r="2.55" fill="#0D0F14" opacity="1.00"></circle><circle cx="189.0" cy="109.0" r="2.55" fill="#0D0F14" opacity="1.00"></circle><circle cx="194.8" cy="109.0" r="2.55" fill="#0D0F14" opacity="1.00"></circle><circle cx="200.6" cy="109.0" r="2.55" fill="#0D0F14" opacity="1.00"></circle><circle cx="56.7" cy="114.1" r="1.41" fill="#0D0F14" opacity="0.16"></circle><circle cx="84.5" cy="114.5" r="2.55" fill="#0D0F14" opacity="1.00"></circle><circle cx="89.3" cy="115.1" r="2.55" fill="#0D0F14" opacity="1.00"></circle><circle cx="95.8" cy="113.9" r="2.55" fill="#0D0F14" opacity="1.00"></circle><circle cx="177.4" cy="114.8" r="2.55" fill="#0D0F14" opacity="1.00"></circle><circle cx="183.2" cy="114.8" r="2.55" fill="#0D0F14" opacity="1.00"></circle><circle cx="189.0" cy="114.8" r="2.55" fill="#0D0F14" opacity="1.00"></circle><circle cx="194.8" cy="114.8" r="2.55" fill="#0D0F14" opacity="1.00"></circle><circle cx="200.6" cy="114.8" r="2.55" fill="#0D0F14" opacity="1.00"></circle><circle cx="45.3" cy="116.1" r="1.41" fill="#0D0F14" opacity="0.16"></circle><circle cx="73.8" cy="121.3" r="1.50" fill="#0D0F14" opacity="0.18"></circle><circle cx="76.2" cy="120.1" r="1.59" fill="#0D0F14" opacity="0.23"></circle><circle cx="68.4" cy="115.9" r="1.68" fill="#0D0F14" opacity="0.28"></circle><circle cx="177.4" cy="120.6" r="2.55" fill="#0D0F14" opacity="1.00"></circle><circle cx="183.2" cy="120.6" r="2.55" fill="#0D0F14" opacity="1.00"></circle><circle cx="189.0" cy="120.6" r="2.55" fill="#0D0F14" opacity="1.00"></circle><circle cx="194.8" cy="120.6" r="2.55" fill="#0D0F14" opacity="1.00"></circle><circle cx="200.6" cy="120.6" r="2.55" fill="#0D0F14" opacity="1.00"></circle><circle cx="40.9" cy="140.1" r="1.41" fill="#0D0F14" opacity="0.16"></circle><circle cx="50.7" cy="134.9" r="1.50" fill="#0D0F14" opacity="0.18"></circle><circle cx="72.2" cy="123.0" r="1.59" fill="#0D0F14" opacity="0.23"></circle><circle cx="97.1" cy="126.9" r="2.55" fill="#0D0F14" opacity="1.00"></circle><circle cx="177.4" cy="126.4" r="2.55" fill="#0D0F14" opacity="1.00"></circle><circle cx="183.2" cy="126.4" r="2.55" fill="#0D0F14" opacity="1.00"></circle><circle cx="189.0" cy="126.4" r="2.55" fill="#0D0F14" opacity="1.00"></circle><circle cx="194.8" cy="126.4" r="2.55" fill="#0D0F14" opacity="1.00"></circle><circle cx="45.8" cy="132.5" r="1.41" fill="#0D0F14" opacity="0.16"></circle><circle cx="49.8" cy="146.7" r="1.50" fill="#0D0F14" opacity="0.18"></circle><circle cx="90.7" cy="131.6" r="2.55" fill="#0D0F14" opacity="1.00"></circle><circle cx="96.1" cy="132.3" r="2.55" fill="#0D0F14" opacity="1.00"></circle><circle cx="171.6" cy="132.2" r="2.55" fill="#0D0F14" opacity="1.00"></circle><circle cx="177.4" cy="132.2" r="2.55" fill="#0D0F14" opacity="1.00"></circle><circle cx="183.2" cy="132.2" r="2.55" fill="#0D0F14" opacity="1.00"></circle><circle cx="189.0" cy="132.2" r="2.55" fill="#0D0F14" opacity="1.00"></circle><circle cx="194.8" cy="132.2" r="2.55" fill="#0D0F14" opacity="1.00"></circle><circle cx="50.9" cy="128.6" r="1.41" fill="#0D0F14" opacity="0.16"></circle><circle cx="73.8" cy="139.1" r="1.50" fill="#0D0F14" opacity="0.18"></circle><circle cx="77.8" cy="141.2" r="1.59" fill="#0D0F14" opacity="0.23"></circle><circle cx="73.7" cy="129.0" r="1.68" fill="#0D0F14" opacity="0.28"></circle><circle cx="165.8" cy="138.0" r="2.55" fill="#0D0F14" opacity="1.00"></circle><circle cx="171.6" cy="138.0" r="2.55" fill="#0D0F14" opacity="1.00"></circle><circle cx="177.4" cy="138.0" r="2.55" fill="#0D0F14" opacity="1.00"></circle><circle cx="183.2" cy="138.0" r="2.55" fill="#0D0F14" opacity="1.00"></circle><circle cx="189.0" cy="138.0" r="2.55" fill="#0D0F14" opacity="1.00"></circle><circle cx="194.8" cy="138.0" r="2.55" fill="#0D0F14" opacity="1.00"></circle><circle cx="66.7" cy="141.3" r="1.41" fill="#0D0F14" opacity="0.16"></circle><circle cx="84.6" cy="144.3" r="2.55" fill="#0D0F14" opacity="1.00"></circle><circle cx="80.1" cy="146.2" r="1.59" fill="#0D0F14" opacity="0.23"></circle><circle cx="78.6" cy="149.5" r="1.68" fill="#0D0F14" opacity="0.28"></circle><circle cx="160.0" cy="143.8" r="2.55" fill="#0D0F14" opacity="1.00"></circle><circle cx="165.8" cy="143.8" r="2.55" fill="#0D0F14" opacity="1.00"></circle><circle cx="171.6" cy="143.8" r="2.55" fill="#0D0F14" opacity="1.00"></circle><circle cx="177.4" cy="143.8" r="2.55" fill="#0D0F14" opacity="1.00"></circle><circle cx="183.2" cy="143.8" r="2.55" fill="#0D0F14" opacity="1.00"></circle><circle cx="189.0" cy="143.8" r="2.55" fill="#0D0F14" opacity="1.00"></circle><circle cx="54.2" cy="152.1" r="1.41" fill="#0D0F14" opacity="0.16"></circle><circle cx="72.9" cy="145.2" r="1.50" fill="#0D0F14" opacity="0.18"></circle><circle cx="91.2" cy="150.3" r="2.55" fill="#0D0F14" opacity="1.00"></circle><circle cx="71.0" cy="148.6" r="1.68" fill="#0D0F14" opacity="0.28"></circle><circle cx="154.2" cy="149.6" r="2.55" fill="#0D0F14" opacity="1.00"></circle><circle cx="160.0" cy="149.6" r="2.55" fill="#0D0F14" opacity="1.00"></circle><circle cx="165.8" cy="149.6" r="2.55" fill="#0D0F14" opacity="1.00"></circle><circle cx="171.6" cy="149.6" r="2.55" fill="#0D0F14" opacity="1.00"></circle><circle cx="177.4" cy="149.6" r="2.55" fill="#0D0F14" opacity="1.00"></circle><circle cx="183.2" cy="149.6" r="2.55" fill="#0D0F14" opacity="1.00"></circle><circle cx="41.7" cy="165.8" r="1.41" fill="#0D0F14" opacity="0.16"></circle><circle cx="71.8" cy="154.4" r="1.50" fill="#0D0F14" opacity="0.18"></circle><circle cx="89.4" cy="156.0" r="2.55" fill="#0D0F14" opacity="1.00"></circle><circle cx="95.6" cy="155.3" r="2.55" fill="#0D0F14" opacity="1.00"></circle><circle cx="136.8" cy="155.4" r="2.55" fill="#0D0F14" opacity="1.00"></circle><circle cx="142.6" cy="155.4" r="2.55" fill="#0D0F14" opacity="1.00"></circle><circle cx="148.4" cy="155.4" r="2.55" fill="#0D0F14" opacity="1.00"></circle><circle cx="154.2" cy="155.4" r="2.55" fill="#0D0F14" opacity="1.00"></circle><circle cx="160.0" cy="155.4" r="2.55" fill="#0D0F14" opacity="1.00"></circle><circle cx="165.8" cy="155.4" r="2.55" fill="#0D0F14" opacity="1.00"></circle><circle cx="171.6" cy="155.4" r="2.55" fill="#0D0F14" opacity="1.00"></circle><circle cx="177.4" cy="155.4" r="2.55" fill="#0D0F14" opacity="1.00"></circle><circle cx="183.2" cy="155.4" r="2.55" fill="#0D0F14" opacity="1.00"></circle><circle cx="41.4" cy="156.3" r="1.41" fill="#0D0F14" opacity="0.16"></circle><circle cx="83.5" cy="161.1" r="2.55" fill="#0D0F14" opacity="1.00"></circle><circle cx="60.6" cy="160.6" r="1.59" fill="#0D0F14" opacity="0.23"></circle><circle cx="96.6" cy="161.7" r="2.55" fill="#0D0F14" opacity="1.00"></circle><circle cx="101.3" cy="161.5" r="2.55" fill="#0D0F14" opacity="1.00"></circle><circle cx="107.3" cy="161.2" r="2.55" fill="#0D0F14" opacity="1.00"></circle><circle cx="113.0" cy="160.9" r="2.55" fill="#0D0F14" opacity="1.00"></circle><circle cx="119.4" cy="161.2" r="2.55" fill="#0D0F14" opacity="1.00"></circle><circle cx="125.2" cy="161.2" r="2.55" fill="#0D0F14" opacity="1.00"></circle><circle cx="131.0" cy="161.2" r="2.55" fill="#0D0F14" opacity="1.00"></circle><circle cx="136.8" cy="161.2" r="2.55" fill="#0D0F14" opacity="1.00"></circle><circle cx="142.6" cy="161.2" r="2.55" fill="#0D0F14" opacity="1.00"></circle><circle cx="148.4" cy="161.2" r="2.55" fill="#0D0F14" opacity="1.00"></circle><circle cx="154.2" cy="161.2" r="2.55" fill="#0D0F14" opacity="1.00"></circle><circle cx="160.0" cy="161.2" r="2.55" fill="#0D0F14" opacity="1.00"></circle><circle cx="165.8" cy="161.2" r="2.55" fill="#0D0F14" opacity="1.00"></circle><circle cx="171.6" cy="161.2" r="2.55" fill="#0D0F14" opacity="1.00"></circle><circle cx="177.4" cy="161.2" r="2.55" fill="#0D0F14" opacity="1.00"></circle><circle cx="60.0" cy="171.3" r="1.41" fill="#0D0F14" opacity="0.16"></circle><circle cx="57.5" cy="175.5" r="1.50" fill="#0D0F14" opacity="0.18"></circle><circle cx="74.3" cy="170.5" r="1.59" fill="#0D0F14" opacity="0.23"></circle><circle cx="96.5" cy="168.0" r="2.55" fill="#0D0F14" opacity="1.00"></circle><circle cx="102.2" cy="166.8" r="2.55" fill="#0D0F14" opacity="1.00"></circle><circle cx="108.3" cy="167.6" r="2.55" fill="#0D0F14" opacity="1.00"></circle><circle cx="113.3" cy="167.1" r="2.55" fill="#0D0F14" opacity="1.00"></circle><circle cx="119.4" cy="167.0" r="2.55" fill="#0D0F14" opacity="1.00"></circle><circle cx="125.2" cy="167.0" r="2.55" fill="#0D0F14" opacity="1.00"></circle><circle cx="131.0" cy="167.0" r="2.55" fill="#0D0F14" opacity="1.00"></circle><circle cx="136.8" cy="167.0" r="2.55" fill="#0D0F14" opacity="1.00"></circle><circle cx="142.6" cy="167.0" r="2.55" fill="#0D0F14" opacity="1.00"></circle><circle cx="148.4" cy="167.0" r="2.55" fill="#0D0F14" opacity="1.00"></circle><circle cx="154.2" cy="167.0" r="2.55" fill="#0D0F14" opacity="1.00"></circle><circle cx="160.0" cy="167.0" r="2.55" fill="#0D0F14" opacity="1.00"></circle><circle cx="165.8" cy="167.0" r="2.55" fill="#0D0F14" opacity="1.00"></circle><circle cx="58.3" cy="171.8" r="1.41" fill="#0D0F14" opacity="0.16"></circle><circle cx="83.9" cy="173.0" r="2.55" fill="#0D0F14" opacity="1.00"></circle><circle cx="73.8" cy="167.0" r="1.59" fill="#0D0F14" opacity="0.23"></circle><circle cx="67.6" cy="164.2" r="1.68" fill="#0D0F14" opacity="0.28"></circle><circle cx="101.4" cy="173.2" r="2.55" fill="#0D0F14" opacity="1.00"></circle><circle cx="108.3" cy="172.6" r="2.55" fill="#0D0F14" opacity="1.00"></circle><circle cx="113.6" cy="172.9" r="2.55" fill="#0D0F14" opacity="1.00"></circle><circle cx="119.4" cy="172.8" r="2.55" fill="#0D0F14" opacity="1.00"></circle><circle cx="125.2" cy="172.8" r="2.55" fill="#0D0F14" opacity="1.00"></circle><circle cx="131.0" cy="172.8" r="2.55" fill="#0D0F14" opacity="1.00"></circle><circle cx="136.8" cy="172.8" r="2.55" fill="#0D0F14" opacity="1.00"></circle><circle cx="142.6" cy="172.8" r="2.55" fill="#0D0F14" opacity="1.00"></circle><circle cx="148.4" cy="172.8" r="2.55" fill="#0D0F14" opacity="1.00"></circle><circle cx="154.2" cy="172.8" r="2.55" fill="#0D0F14" opacity="1.00"></circle><circle cx="160.0" cy="172.8" r="2.55" fill="#0D0F14" opacity="1.00"></circle><circle cx="47.4" cy="186.5" r="1.41" fill="#0D0F14" opacity="0.16"></circle><circle cx="50.3" cy="183.1" r="1.50" fill="#0D0F14" opacity="0.18"></circle><circle cx="90.6" cy="179.1" r="2.55" fill="#0D0F14" opacity="1.00"></circle><circle cx="86.2" cy="182.4" r="1.68" fill="#0D0F14" opacity="0.28"></circle><circle cx="102.7" cy="178.2" r="2.55" fill="#0D0F14" opacity="1.00"></circle><circle cx="108.4" cy="178.5" r="2.55" fill="#0D0F14" opacity="1.00"></circle><circle cx="113.5" cy="178.6" r="2.55" fill="#0D0F14" opacity="1.00"></circle><circle cx="119.4" cy="178.6" r="2.55" fill="#0D0F14" opacity="1.00"></circle><circle cx="125.2" cy="178.6" r="2.55" fill="#0D0F14" opacity="1.00"></circle><circle cx="131.0" cy="178.6" r="2.55" fill="#0D0F14" opacity="1.00"></circle><circle cx="136.8" cy="178.6" r="2.55" fill="#0D0F14" opacity="1.00"></circle><circle cx="70.1" cy="137.6" r="1.97" fill="#0D0F14" opacity="0.38"></circle><circle cx="57.6" cy="49.1" r="1.67" fill="#0D0F14" opacity="0.31"></circle><circle cx="67.6" cy="64.1" r="1.88" fill="#0D0F14" opacity="0.37"></circle><circle cx="72.4" cy="55.8" r="2.02" fill="#0D0F14" opacity="0.39"></circle><circle cx="67.0" cy="58.7" r="2.00" fill="#0D0F14" opacity="0.36"></circle><circle cx="33.9" cy="131.6" r="1.57" fill="#0D0F14" opacity="0.18"></circle><circle cx="26.6" cy="51.6" r="1.34" fill="#0D0F14" opacity="0.14"></circle><circle cx="42.3" cy="54.3" r="1.56" fill="#0D0F14" opacity="0.23"></circle><circle cx="61.5" cy="177.8" r="1.63" fill="#0D0F14" opacity="0.33"></circle><circle cx="10.6" cy="140.2" r="1.48" fill="#0D0F14" opacity="0.10"></circle><circle cx="24.6" cy="53.8" r="1.19" fill="#0D0F14" opacity="0.13"></circle><circle cx="70.5" cy="167.3" r="2.07" fill="#0D0F14" opacity="0.38"></circle><circle cx="24.1" cy="128.6" r="1.17" fill="#0D0F14" opacity="0.13"></circle><circle cx="49.4" cy="65.8" r="1.37" fill="#0D0F14" opacity="0.27"></circle><circle cx="68.2" cy="112.7" r="2.16" fill="#0D0F14" opacity="0.37"></circle><circle cx="72.1" cy="74.3" r="1.30" fill="#0D0F14" opacity="0.39"></circle><circle cx="42.8" cy="80.4" r="1.84" fill="#0D0F14" opacity="0.23"></circle><circle cx="49.0" cy="124.2" r="1.78" fill="#0D0F14" opacity="0.27"></circle><circle cx="68.3" cy="119.7" r="2.18" fill="#0D0F14" opacity="0.37"></circle><circle cx="43.1" cy="22.7" r="1.24" fill="#0D0F14" opacity="0.23"></circle><circle cx="52.8" cy="111.1" r="1.37" fill="#0D0F14" opacity="0.29"></circle><circle cx="57.8" cy="56.6" r="1.33" fill="#0D0F14" opacity="0.31"></circle><circle cx="54.4" cy="67.0" r="1.20" fill="#0D0F14" opacity="0.30"></circle><circle cx="67.3" cy="175.0" r="1.23" fill="#0D0F14" opacity="0.37"></circle><circle cx="66.0" cy="130.4" r="1.14" fill="#0D0F14" opacity="0.36"></circle><circle cx="22.1" cy="133.6" r="1.48" fill="#0D0F14" opacity="0.12"></circle><circle cx="66.1" cy="127.3" r="1.80" fill="#0D0F14" opacity="0.36"></circle><circle cx="20.2" cy="111.2" r="1.11" fill="#0D0F14" opacity="0.11"></circle><circle cx="28.6" cy="145.7" r="1.47" fill="#0D0F14" opacity="0.16"></circle><circle cx="84.7" cy="21.7" r="1.77" fill="#0D0F14" opacity="0.46"></circle><circle cx="18.7" cy="80.8" r="1.25" fill="#0D0F14" opacity="0.10"></circle><circle cx="65.1" cy="188.9" r="1.16" fill="#0D0F14" opacity="0.35"></circle><circle cx="62.9" cy="152.1" r="2.14" fill="#0D0F14" opacity="0.34"></circle><circle cx="21.6" cy="26.7" r="1.21" fill="#0D0F14" opacity="0.12"></circle><circle cx="43.6" cy="124.9" r="1.92" fill="#0D0F14" opacity="0.24"></circle><circle cx="67.9" cy="93.9" r="1.34" fill="#0D0F14" opacity="0.37"></circle><circle cx="66.8" cy="171.2" r="1.76" fill="#0D0F14" opacity="0.36"></circle><circle cx="55.7" cy="170.0" r="1.23" fill="#0D0F14" opacity="0.30"></circle><circle cx="71.0" cy="63.7" r="2.22" fill="#0D0F14" opacity="0.39"></circle><circle cx="32.1" cy="147.5" r="1.85" fill="#0D0F14" opacity="0.17"></circle><circle cx="10.8" cy="58.6" r="1.40" fill="#0D0F14" opacity="0.10"></circle><circle cx="8.6" cy="131.4" r="1.18" fill="#0D0F14" opacity="0.10"></circle><circle cx="50.1" cy="187.9" r="1.15" fill="#0D0F14" opacity="0.27"></circle><circle cx="75.5" cy="33.9" r="1.80" fill="#0D0F14" opacity="0.41"></circle><circle cx="55.6" cy="185.2" r="1.86" fill="#0D0F14" opacity="0.30"></circle><circle cx="65.8" cy="125.1" r="1.15" fill="#0D0F14" opacity="0.36"></circle><circle cx="58.4" cy="28.3" r="1.83" fill="#0D0F14" opacity="0.32"></circle><circle cx="55.4" cy="133.3" r="1.49" fill="#0D0F14" opacity="0.30"></circle></svg>