<svg width="134.51" height="27.6366" overflow="visible" style="display: block;" viewBox="0 0 134.51 27.6366" fill="none" xmlns="http://www.w3.org/2000/svg">
<g id="Group 2085662938">
<path id="Vector" d="M81.976 27.2675C81.7035 27.2675 81.4825 27.0465 81.4825 26.7738V0.864186C81.4825 0.59154 81.7035 0.370516 81.976 0.370516H96.0939C101.233 0.370516 104.827 3.86712 104.827 8.87668C104.827 12.6423 102.644 15.7018 99.3185 16.9121L105.572 26.5041C105.786 26.8325 105.551 27.2675 105.159 27.2675H98.9512C98.7825 27.2675 98.6254 27.1812 98.5348 27.0388L92.4998 17.5509H88.0325V26.7738C88.0325 27.0465 87.8115 27.2675 87.539 27.2675H81.976ZM88.0325 11.6672H95.6908C97.2359 11.6672 98.2772 10.5577 98.2772 8.97754C98.2772 7.36372 97.2359 6.25423 95.6908 6.25423H88.0325V11.6672Z" fill="var(--fill-0, #FAFAFA)"/>
<path id="Vector_2" d="M55.1942 27.2675C54.9216 27.2675 54.7007 27.0465 54.7007 26.7738V0.864186C54.7007 0.59154 54.9216 0.370516 55.1942 0.370516H60.7571C61.0296 0.370516 61.2506 0.591539 61.2506 0.864185V10.6586H71.1594V0.864186C71.1594 0.59154 71.3804 0.370516 71.6529 0.370516H77.1823C77.4548 0.370516 77.6758 0.591539 77.6758 0.864185V26.7738C77.6758 27.0465 77.4548 27.2675 77.1823 27.2675H71.6529C71.3804 27.2675 71.1594 27.0465 71.1594 26.7738V16.5423H61.2506V26.7738C61.2506 27.0465 61.0296 27.2675 60.7571 27.2675H55.1942Z" fill="var(--fill-0, #FAFAFA)"/>
<path id="Vector_3" d="M38.9488 27.6366C30.9881 27.6366 25.3115 22.0219 25.3115 13.7847C25.3115 5.58112 30.9881 6.33937e-08 38.8816 6.33937e-08C45.8839 6.33937e-08 50.9914 4.52012 52.4589 10.71C52.5306 11.0125 52.2968 11.2967 51.986 11.2967H46.1745C45.9536 11.2967 45.7613 11.1491 45.6897 10.94C44.7708 8.25371 42.2016 6.1863 39.0159 6.1863C35.0524 6.1863 32.0294 9.24583 32.0294 13.7847C32.0294 18.2899 35.086 21.2822 39.0831 21.2822C42.3679 21.2822 44.8809 19.397 45.793 16.634C45.8628 16.4226 46.0562 16.2727 46.2787 16.2727H52.0712C52.376 16.2727 52.6084 16.5467 52.5472 16.8454C51.2394 23.2285 46.0604 27.6366 38.9488 27.6366Z" fill="var(--fill-0, #FAFAFA)"/>
<path id="Union" d="M16.3648 0.370516C16.5684 0.370516 16.7514 0.495496 16.8251 0.685326L26.8877 26.5948C27.0134 26.9183 26.7749 27.2671 26.428 27.2673H20.8063C20.6008 27.2673 20.4165 27.14 20.3441 26.9477L18.5166 22.0895L16.5012 16.6428L13.4781 8.64092L11.0265 15.13H15.0285C15.3696 15.13 15.6076 15.468 15.493 15.7895L13.746 20.6862C13.6759 20.8826 13.49 21.0139 13.2815 21.014H8.83762L8.43955 22.0895L6.61159 26.9477C6.53915 27.1399 6.35532 27.2673 6.14991 27.2673H0.494007C0.147197 27.2673 -0.091479 26.9188 0.0337658 26.5952L10.0641 0.685808C10.1377 0.495731 10.3206 0.370536 10.5244 0.370516H16.3648Z" fill="var(--fill-0, #FAFAFA)"/>
<path id="Union_2" d="M123.953 0.370516C124.157 0.370516 124.34 0.495496 124.413 0.685326L134.476 26.5948C134.602 26.9183 134.363 27.2672 134.016 27.2673H128.395C128.189 27.2673 128.005 27.1399 127.933 26.9477L126.105 22.0895L124.09 16.6428L121.066 8.64092L118.615 15.13H122.617C122.958 15.13 123.196 15.468 123.081 15.7895L121.334 20.6862C121.264 20.8826 121.078 21.014 120.87 21.014H116.426L116.028 22.0895L114.2 26.9477C114.128 27.14 113.944 27.2673 113.738 27.2673H108.082C107.735 27.2673 107.497 26.9188 107.622 26.5952L117.652 0.685808C117.726 0.495745 117.909 0.370554 118.113 0.370516H123.953Z" fill="var(--fill-0, #FAFAFA)"/>
</g>
</svg>
