<svg width="40.2262" height="39" overflow="visible" style="display: block;" viewBox="0 0 40.2262 39" fill="none" xmlns="http://www.w3.org/2000/svg">
<g id="Group">
<path id="Vector" fill-rule="evenodd" clip-rule="evenodd" d="M19.88 25.3777C25.2542 25.3657 30.632 27.4232 34.7324 31.5505C35.696 32.5203 36.546 33.5612 37.2824 34.6563C37.6562 35.212 37.4081 35.9581 36.7914 36.2184L30.4081 38.9131C29.937 39.112 29.395 38.9581 29.0628 38.5689C28.864 38.3361 28.655 38.109 28.4358 37.8884C27.5462 36.9929 26.5519 36.2669 25.4926 35.7106C23.74 34.7899 21.8092 34.3333 19.88 34.3408C17.9507 34.3333 16.02 34.7899 14.2672 35.7106C13.2079 36.2669 12.2137 36.9929 11.3241 37.8884C11.1048 38.109 10.8958 38.3361 10.6971 38.5689C10.3649 38.9581 9.82288 39.112 9.35169 38.9131L2.96844 36.2184C2.35173 35.9581 2.1037 35.212 2.47745 34.6563C3.21391 33.5612 4.0639 32.5203 5.02745 31.5505C9.1278 27.4232 14.5058 25.3657 19.88 25.3777Z" fill="#141414"/>
<path id="Vector_2" fill-rule="evenodd" clip-rule="evenodd" d="M9.0426 5.42862C9.0426 10.5874 5.83838 14.993 1.32396 16.7389C0.903029 16.9017 0.596289 17.2813 0.561398 17.7316L0.00339765 24.9336C-0.0512089 25.6384 0.560542 26.2143 1.25213 26.071C10.7818 24.0968 17.9473 15.605 17.9473 5.42862C17.9473 3.84335 17.7734 2.29898 17.4438 0.813752C17.3008 0.169496 16.6068 -0.166983 15.9964 0.0826646L9.65115 2.67807C9.16021 2.87888 8.88619 3.39971 8.95094 3.92659C9.01143 4.41873 9.0426 4.92001 9.0426 5.42862Z" fill="#141414"/>
<path id="Vector_3" fill-rule="evenodd" clip-rule="evenodd" d="M31.1836 5.42862C31.1836 10.5874 34.3878 14.993 38.9022 16.7389C39.3231 16.9017 39.6299 17.2813 39.6648 17.7316L40.2228 24.9336C40.2774 25.6384 39.6656 26.2143 38.974 26.071C29.4444 24.0968 22.2788 15.605 22.2788 5.42862C22.2788 3.84335 22.4527 2.29898 22.7823 0.813752C22.9253 0.169496 23.6194 -0.166983 24.2297 0.0826646L30.575 2.67807C31.0659 2.87888 31.34 3.39971 31.2752 3.92659C31.2147 4.41873 31.1836 4.92001 31.1836 5.42862Z" fill="#141414"/>
</g>
</svg>
