<svg width="80" height="80" overflow="visible" style="display: block;" viewBox="0 0 80 80" fill="none" xmlns="http://www.w3.org/2000/svg">
<g id="Group">
<path id="Vector" d="M22.6535 0.190099V0H0.0118807C0.00395991 0.340594 0 0.681187 0 1.02178C0 22.6297 17.303 40.194 38.8119 40.6178V17.1208C29.8178 16.7089 22.6535 9.28712 22.6535 0.190099Z" fill="var(--fill-0, #8338FF)"/>
<path id="Vector_2" d="M80 1.02178C80 0.681187 79.9961 0.340594 79.9881 0H57.3466V0.190099C57.3466 9.28712 50.1822 16.7089 41.1881 17.1208V40.6178C51.8139 40.4079 61.4099 36.0198 68.4 29.0257C75.5683 21.8614 80 11.9604 80 1.02178Z" fill="var(--fill-0, #8338FF)" fill-opacity="0.6"/>
<path id="Vector_3" d="M0.0874122 80H22.6538C22.6538 70.9029 29.8181 63.4812 38.8122 63.0693V43.0099C28.1864 43.2198 18.5904 47.6079 11.6003 54.602C5.00623 61.1921 0.728996 70.099 0.0874122 80Z" fill="var(--fill-0, #8338FF)" fill-opacity="0.6"/>
<path id="Vector_4" d="M41.1881 43.0099V63.0693C50.1822 63.4812 57.3466 70.9029 57.3466 80H79.9129C79.2713 70.099 74.9941 61.1921 68.4 54.602C61.4099 47.6079 51.8139 43.2198 41.1881 43.0099Z" fill="var(--fill-0, #8338FF)"/>
</g>
</svg>
