<svg width="80" height="80" overflow="visible" style="display: block;" viewBox="0 0 80 80" fill="none" xmlns="http://www.w3.org/2000/svg">
<g id="Group">
<path id="Vector" d="M80 18.3422V40.6354C59.3185 40.4337 42.466 24.2133 41.24 3.76916V0H62.3839C62.3799 0.10292 62.3799 0.205876 62.3799 0.308795C62.3799 10.1392 70.2306 18.1325 80 18.3422Z" fill="var(--fill-0, #8338FF)" fill-opacity="0.6"/>
<path id="Vector_2" d="M37.9689 1.5797C37.9689 22.8477 21.0844 40.1607 0 40.8297V18.5126C9.36179 17.8631 16.7538 10.0561 16.7538 0.518693C16.7538 0.344483 16.7498 0.174272 16.7458 6.10352e-05H37.9333C37.9569 0.522657 37.9689 1.04922 37.9689 1.5797Z" fill="var(--fill-0, #8338FF)" fill-opacity="0.4"/>
<path id="Vector_3" d="M37.6999 80H16.4848C15.4326 71.5553 8.55091 64.9241 0 64.2706V44.0718C19.9177 44.7605 36.0586 60.3156 37.6999 80Z" fill="var(--fill-0, #8338FF)"/>
<path id="Vector_4" d="M79.944 44.1827V64.3578C71.0135 64.5872 63.7047 71.3179 62.5576 80H41.3345C43.0668 60.0821 59.6547 44.4201 79.944 44.1827Z" fill="var(--fill-0, #8338FF)" fill-opacity="0.8"/>
</g>
</svg>
