<svg width="42.4264" height="42.4264" overflow="visible" style="display: block;" viewBox="0 0 42.4264 42.4264" fill="none" xmlns="http://www.w3.org/2000/svg">
<path id="Vector" d="M32.5836 11.8189C32.3884 11.6236 32.3884 11.307 32.5836 11.1118L36.8334 6.86172C40.6689 11.029 42.5323 16.3583 42.4218 21.6575L32.5836 11.8189ZM31.734 23.2604C31.5387 23.4556 31.5387 23.7722 31.734 23.9674L39.5894 31.8235C40.9985 29.385 41.883 26.7254 42.2429 24.0115L36.9666 18.7347C36.7713 18.5395 36.4547 18.5395 36.2594 18.7347L31.734 23.2604ZM0.00464428 20.7709C-0.105916 26.0681 1.75753 31.3973 5.59298 35.5667L9.84279 31.3167C10.038 31.1214 10.038 30.8048 9.84279 30.6096L0.00464428 20.7709ZM6.86142 36.8331C11.0286 40.6688 16.3596 42.5323 21.6564 42.4218L11.8183 32.5832C11.6231 32.3879 11.3065 32.3879 11.1112 32.5832L6.86142 36.8331ZM21.5212 29.9931C21.7165 29.7978 21.7165 29.4813 21.5212 29.286L2.83901 10.6029C1.42987 13.0414 0.545379 15.6989 0.185554 18.4148L16.2887 34.5187C16.4839 34.714 16.8005 34.714 16.9958 34.5187L21.5212 29.9931ZM15.8819 11.3372C16.0689 11.1407 16.065 10.8309 15.8732 10.6391L9.05655 3.82218C8.05748 4.52176 7.10464 5.31782 6.21212 6.21038C5.31959 7.10295 4.52356 8.05586 3.82402 9.05497L10.6397 15.869C10.8319 16.0612 11.1423 16.0646 11.3387 15.8768L13.8345 13.49L15.8819 11.3372ZM18.0644 35.5895C17.8691 35.7847 17.8691 36.1013 18.0644 36.2966L24.0104 42.2428C26.7262 41.883 29.3836 40.9985 31.822 39.5892L23.297 31.0638C23.1017 30.8685 22.7851 30.8685 22.5898 31.0638L18.0644 35.5895ZM38.6024 33.3694L17.8639 12.6299C17.6686 12.4346 17.352 12.4346 17.1568 12.6299L12.6313 17.1556C12.436 17.3508 12.436 17.6674 12.6313 17.8627L33.3699 38.6022C34.3689 37.9026 35.3218 37.1065 36.2143 36.214C37.1068 35.3214 37.9028 34.3685 38.6024 33.3694ZM34.991 17.4662C35.1863 17.2709 35.1863 16.9544 34.991 16.7591L18.416 0.183539C15.7002 0.543381 13.0428 1.4279 10.6044 2.83711L29.7585 21.9919C29.9537 22.1871 30.2703 22.1871 30.4656 21.9919L34.991 17.4662ZM35.565 5.59326C31.3979 1.75763 26.0668 -0.105921 20.77 0.00464447L30.6081 9.84323C30.8034 10.0385 31.1199 10.0385 31.3152 9.84323L35.565 5.59326Z" fill="var(--fill-0, #8E55EA)"/>
</svg>
