<svg width="175.23" height="31.0022" overflow="visible" style="display: block;" viewBox="0 0 175.23 31.0022" fill="none" xmlns="http://www.w3.org/2000/svg">
<g id="Connect">
<path d="M0 15.4579C0 12.4642 0.646164 9.80153 1.93849 7.46989C3.23082 5.10946 5.02572 3.28157 7.32319 1.98621C9.64938 0.662071 12.2771 0 15.2064 0C18.7962 0 21.8691 0.949928 24.425 2.84978C26.9809 4.74964 28.6897 7.34036 29.5512 10.6219H21.4526C20.8496 9.35536 19.988 8.39104 18.868 7.72896C17.7767 7.06689 16.5274 6.73586 15.1202 6.73586C12.8515 6.73586 11.0135 7.52747 9.6063 9.11068C8.1991 10.6939 7.4955 12.8096 7.4955 15.4579C7.4955 18.1062 8.1991 20.222 9.6063 21.8052C11.0135 23.3884 12.8515 24.18 15.1202 24.18C16.5274 24.18 17.7767 23.849 18.868 23.1869C19.988 22.5248 20.8496 21.5605 21.4526 20.2939H29.5512C28.6897 23.5755 26.9809 26.1662 24.425 28.0661C21.8691 29.9371 18.7962 30.8727 15.2064 30.8727C12.2771 30.8727 9.64938 30.225 7.32319 28.9296C5.02572 27.6055 3.23082 25.7776 1.93849 23.446C0.646164 21.1143 0 18.4516 0 15.4579Z" fill="var(--fill-0, #32373B)"/>
<path d="M43.2809 31.0022C40.926 31.0022 38.8008 30.4985 36.9054 29.491C35.0387 28.4835 33.5597 27.0442 32.4684 25.1731C31.4058 23.302 30.8745 21.1143 30.8745 18.61C30.8745 16.1344 31.4202 13.9611 32.5115 12.09C33.6028 10.1901 35.0961 8.73646 36.9915 7.72896C38.887 6.72146 41.0121 6.21771 43.367 6.21771C45.7219 6.21771 47.8471 6.72146 49.7425 7.72896C51.6379 8.73646 53.1313 10.1901 54.2226 12.09C55.3139 13.9611 55.8595 16.1344 55.8595 18.61C55.8595 21.0855 55.2995 23.2732 54.1795 25.1731C53.0882 27.0442 51.5805 28.4835 49.6564 29.491C47.7609 30.4985 45.6358 31.0022 43.2809 31.0022ZM43.2809 24.6118C44.6881 24.6118 45.8799 24.0936 46.8563 23.0574C47.8615 22.0211 48.364 20.5386 48.364 18.61C48.364 16.6813 47.8758 15.1989 46.8994 14.1626C45.9517 13.1263 44.7742 12.6081 43.367 12.6081C41.9311 12.6081 40.7393 13.1263 39.7916 14.1626C38.8439 15.1701 38.37 16.6525 38.37 18.61C38.37 20.5386 38.8295 22.0211 39.7485 23.0574C40.6962 24.0936 41.8737 24.6118 43.2809 24.6118Z" fill="var(--fill-0, #32373B)"/>
<path d="M72.6908 6.30407C75.5052 6.30407 77.7452 7.22521 79.4109 9.0675C81.1052 10.881 81.9524 13.3854 81.9524 16.5806V30.6568H74.6292V17.5737C74.6292 15.9617 74.2128 14.7095 73.38 13.8171C72.5472 12.9248 71.4271 12.4786 70.0199 12.4786C68.6127 12.4786 67.4927 12.9248 66.6599 13.8171C65.8271 14.7095 65.4106 15.9617 65.4106 17.5737V30.6568H58.0444V6.56314H65.4106V9.75836C66.1573 8.69328 67.1625 7.8585 68.4261 7.254C69.6897 6.62071 71.1112 6.30407 72.6908 6.30407Z" fill="var(--fill-0, #32373B)"/>
<path d="M99.9945 6.30407C102.809 6.30407 105.049 7.22521 106.715 9.0675C108.409 10.881 109.256 13.3854 109.256 16.5806V30.6568H101.933V17.5737C101.933 15.9617 101.517 14.7095 100.684 13.8171C99.851 12.9248 98.7309 12.4786 97.3237 12.4786C95.9165 12.4786 94.7965 12.9248 93.9637 13.8171C93.1308 14.7095 92.7144 15.9617 92.7144 17.5737V30.6568H85.3482V6.56314H92.7144V9.75836C93.4611 8.69328 94.4662 7.8585 95.7299 7.254C96.9935 6.62071 98.415 6.30407 99.9945 6.30407Z" fill="var(--fill-0, #32373B)"/>
<path d="M135.311 18.2214C135.311 18.9122 135.268 19.6319 135.182 20.3803H118.511C118.625 21.8771 119.099 23.0286 119.932 23.8346C120.794 24.6118 121.842 25.0004 123.077 25.0004C124.915 25.0004 126.193 24.2232 126.911 22.6687H134.751C134.349 24.252 133.616 25.6769 132.554 26.9434C131.52 28.21 130.213 29.2031 128.634 29.9227C127.054 30.6424 125.288 31.0022 123.335 31.0022C120.98 31.0022 118.884 30.4985 117.046 29.491C115.208 28.4835 113.772 27.0442 112.738 25.1731C111.704 23.302 111.187 21.1143 111.187 18.61C111.187 16.1056 111.69 13.9179 112.695 12.0468C113.729 10.1757 115.165 8.73646 117.003 7.72896C118.841 6.72146 120.952 6.21771 123.335 6.21771C125.661 6.21771 127.729 6.70707 129.538 7.68579C131.348 8.6645 132.755 10.0606 133.76 11.8741C134.794 13.6876 135.311 15.8034 135.311 18.2214ZM127.772 16.2783C127.772 15.0117 127.341 14.0042 126.48 13.2558C125.618 12.5074 124.541 12.1332 123.249 12.1332C122.014 12.1332 120.966 12.493 120.104 13.2126C119.272 13.9323 118.755 14.9542 118.554 16.2783H127.772Z" fill="var(--fill-0, #32373B)"/>
<path d="M136.009 18.61C136.009 16.1056 136.512 13.9179 137.517 12.0468C138.551 10.1757 139.972 8.73646 141.781 7.72896C143.619 6.72146 145.716 6.21771 148.071 6.21771C151.086 6.21771 153.599 7.00932 155.609 8.59253C157.648 10.1757 158.984 12.4066 159.616 15.2852H151.775C151.115 13.4429 149.837 12.5218 147.942 12.5218C146.592 12.5218 145.515 13.0543 144.711 14.1194C143.907 15.1557 143.505 16.6525 143.505 18.61C143.505 20.5674 143.907 22.0786 144.711 23.1437C145.515 24.18 146.592 24.6981 147.942 24.6981C149.837 24.6981 151.115 23.777 151.775 21.9347H159.616C158.984 24.7557 157.648 26.9722 155.609 28.5842C153.57 30.1962 151.058 31.0022 148.071 31.0022C145.716 31.0022 143.619 30.4985 141.781 29.491C139.972 28.4835 138.551 27.0442 137.517 25.1731C136.512 23.302 136.009 21.1143 136.009 18.61Z" fill="var(--fill-0, #32373B)"/>
<path d="M175.23 24.3959V30.6568H171.482C168.811 30.6568 166.729 30.0091 165.236 28.7137C163.743 27.3896 162.996 25.2451 162.996 22.2801V12.6945H160.067V6.56314H162.996V0.690858H170.362V6.56314H175.187V12.6945H170.362V22.3665C170.362 23.0861 170.534 23.6043 170.879 23.9209C171.224 24.2376 171.798 24.3959 172.602 24.3959H175.23Z" fill="var(--fill-0, #32373B)"/>
</g>
</svg>
