<svg width="43.1335" height="43.1335" overflow="visible" style="display: block;" viewBox="0 0 43.1335 43.1335" fill="none" xmlns="http://www.w3.org/2000/svg">
<path id="Vector" d="M33.1208 12.0099C32.9255 11.8147 32.9255 11.4981 33.1208 11.3029L37.4473 6.97608C41.3467 11.2129 43.2412 16.631 43.1288 22.0184L33.1208 12.0099ZM32.257 23.6539C32.0618 23.8492 32.0617 24.1657 32.257 24.361L40.2492 32.3539C41.6819 29.8748 42.5811 27.1708 42.9469 24.4117L37.5768 19.0411C37.3815 18.8458 37.0649 18.8458 36.8697 19.0411L32.257 23.6539ZM0.00472168 21.1171C-0.107682 26.5025 1.78682 31.9206 5.6862 36.1594L10.0127 31.8327C10.208 31.6374 10.208 31.3209 10.0127 31.1256L0.00472168 21.1171ZM6.97577 37.447C11.2124 41.3466 16.6322 43.2412 22.0174 43.1288L12.0094 33.1203C11.8141 32.9251 11.4975 32.9251 11.3023 33.1203L6.97577 37.447ZM21.8858 30.4871C22.0811 30.2918 22.0811 29.9752 21.8858 29.78L2.88633 10.7796C1.4537 13.2587 0.554469 15.9606 0.188647 18.7218L16.566 35.1C16.7613 35.2952 17.0779 35.2952 17.2732 35.1L21.8858 30.4871ZM16.1522 11.5203C16.3392 11.3237 16.3353 11.014 16.1435 10.8222L9.20749 3.88589C8.19177 4.59713 7.22305 5.40645 6.31565 6.31389C5.40825 7.22134 4.59896 8.19012 3.88775 9.20589L10.8228 16.1393C11.0149 16.3314 11.3254 16.3348 11.5218 16.147L14.0651 13.7148L16.1522 11.5203ZM18.3596 36.1885C18.1643 36.3838 18.1643 36.7004 18.3596 36.8956L24.4106 42.9469C27.1716 42.581 29.8734 41.6818 32.3524 40.2491L23.6793 31.5756C23.4841 31.3804 23.1675 31.3804 22.9722 31.5756L18.3596 36.1885ZM39.2458 33.9256L18.1557 12.8345C17.9605 12.6392 17.6439 12.6392 17.4486 12.8345L12.8359 17.4474C12.6407 17.6427 12.6407 17.9592 12.8359 18.1545L33.926 39.2456C34.9417 38.5343 35.9105 37.725 36.8179 36.8175C37.7253 35.9101 38.5346 34.9413 39.2458 33.9256ZM35.5801 17.7514C35.7754 17.5561 35.7754 17.2396 35.5801 17.0443L18.7229 0.186598C15.9619 0.552437 13.2601 1.4517 10.7811 2.8844L30.2603 22.3643C30.4556 22.5596 30.7722 22.5596 30.9675 22.3643L35.5801 17.7514ZM36.1577 5.68648C31.9212 1.78692 26.5013 -0.107687 21.1161 0.00472187L31.1241 10.0132C31.3194 10.2084 31.636 10.2084 31.8312 10.0132L36.1577 5.68648Z" fill="var(--fill-0, #32373B)"/>
</svg>
