<svg width="143.18" height="35.1264" overflow="visible" style="display: block;" viewBox="0 0 143.18 35.1264" fill="none" xmlns="http://www.w3.org/2000/svg">
<g id="Fusion">
<path id="Vector" d="M116.865 34.5539V7.99987H125.072V12.9862H125.239C125.955 11.2207 127.036 9.8767 128.484 8.95419C129.931 8.01577 131.673 7.54656 133.709 7.54656C136.667 7.54656 138.981 8.42931 140.651 10.1948C142.337 11.9603 143.18 14.4097 143.18 17.5431V34.5539H134.711V19.3563C134.711 17.8135 134.305 16.6126 133.494 15.7537C132.699 14.8789 131.577 14.4415 130.13 14.4415C128.698 14.4415 127.537 14.9187 126.647 15.873C125.756 16.8273 125.311 18.06 125.311 19.571V34.5539H116.865Z" fill="var(--fill-0, #F3F5F7)"/>
<path id="Vector_2" d="M111.806 31.4761C109.404 33.9096 106.096 35.1264 101.881 35.1264C97.6658 35.1264 94.3574 33.9096 91.9557 31.4761C89.554 29.0267 88.3532 25.6229 88.3532 21.2649C88.3532 16.9863 89.5699 13.6144 92.0034 11.149C94.437 8.6678 97.7294 7.42718 101.881 7.42718C106.048 7.42718 109.34 8.65985 111.758 11.1252C114.191 13.5746 115.408 16.9545 115.408 21.2649C115.408 25.6388 114.207 29.0426 111.806 31.4761ZM98.2304 26.9192C99.1052 28.2394 100.322 28.8994 101.881 28.8994C103.439 28.8994 104.656 28.2394 105.531 26.9192C106.406 25.5832 106.843 23.6984 106.843 21.2649C106.843 18.895 106.398 17.034 105.507 15.6821C104.616 14.3301 103.408 13.6541 101.881 13.6541C100.338 13.6541 99.1211 14.3301 98.2304 15.6821C97.3556 17.0181 96.9182 18.8791 96.9182 21.2649C96.9182 23.6984 97.3556 25.5832 98.2304 26.9192Z" fill="var(--fill-0, #F3F5F7)"/>
<path id="Vector_3" d="M78.3553 34.5542V9.00021H86.8249V34.5542H78.3553Z" fill="var(--fill-0, #F3F5F7)"/>
<path id="Vector_4" d="M78.3555 6.55402V0H86.8251V6.55402H78.3555Z" fill="var(--fill-0, #FF104D)"/>
<path id="Vector_5" d="M52.8726 16.0399C52.8726 13.3997 53.9303 11.3081 56.0457 9.76527C58.177 8.20655 61.048 7.42718 64.6585 7.42718C68.2372 7.42718 71.0763 8.22245 73.1758 9.81299C75.2753 11.4035 76.341 13.5587 76.3728 16.2785H68.6428C68.611 15.3242 68.2213 14.5687 67.4737 14.012C66.7421 13.4394 65.7719 13.1531 64.563 13.1531C63.4974 13.1531 62.6385 13.3678 61.9864 13.7973C61.3343 14.2267 61.0082 14.7914 61.0082 15.4912C61.0082 16.5569 62.0261 17.3044 64.062 17.7339L69.5494 18.8791C72.2056 19.4357 74.1222 20.2867 75.2992 21.4319C76.4921 22.5771 77.0885 24.1517 77.0885 26.1558C77.0885 28.8756 75.9592 31.0546 73.7007 32.6929C71.4421 34.3152 68.4599 35.1264 64.7539 35.1264C60.9843 35.1264 58.0021 34.3311 55.8071 32.7406C53.6122 31.1341 52.4272 28.9631 52.2523 26.2273H60.4595C60.5867 27.2294 61.04 28.0087 61.8194 28.5654C62.6146 29.1221 63.6485 29.4005 64.9209 29.4005C66.0979 29.4005 67.0204 29.2016 67.6884 28.804C68.3724 28.3905 68.7143 27.8258 68.7143 27.1101C68.7143 26.5534 68.4837 26.108 68.0225 25.774C67.5771 25.44 66.8296 25.1617 65.7798 24.939L60.7935 23.8892C58.2009 23.3485 56.2286 22.41 54.8767 21.074C53.5406 19.7379 52.8726 18.0599 52.8726 16.0399Z" fill="var(--fill-0, #F3F5F7)"/>
<path id="Vector_6" d="M51.0582 8.00051V34.5545H42.8271V29.5443H42.6601C42.0557 31.278 41.0378 32.622 39.6063 33.5764C38.1907 34.5307 36.4889 35.0078 34.5007 35.0078C31.59 35.0078 29.236 34.1171 27.4387 32.3357C25.6414 30.5543 24.7427 28.1208 24.7427 25.0352V8.00051H33.1885V23.1742C33.1885 24.7489 33.61 25.9656 34.453 26.8245C35.3119 27.6834 36.4491 28.1129 37.8647 28.1129C39.2484 28.1129 40.3777 27.6436 41.2525 26.7052C42.1432 25.7509 42.5886 24.5103 42.5886 22.9834V8.00051H51.0582Z" fill="var(--fill-0, #F3F5F7)"/>
<path id="Vector_7" d="M8.75591 34.5541H0V0.126953H23.4286V7.18894H8.75591V15.0144H22.0926V21.7185H8.75591V34.5541Z" fill="var(--fill-0, #F3F5F7)"/>
</g>
</svg>
