<svg width="47.25" height="47.25" overflow="visible" style="display: block;" viewBox="0 0 47.25 47.25" fill="none" xmlns="http://www.w3.org/2000/svg">
<path id="Subtract" fill-rule="evenodd" clip-rule="evenodd" d="M29.5486 0L10.0889 16.1136C7.23454 18.4772 7.02695 22.7819 9.64066 25.4092L16.3729 32.1763C18.3481 34.1618 18.7755 37.2129 17.4218 39.6646L13.2337 47.25H6.3C2.82061 47.25 0 44.4294 0 40.95V6.3C0 2.82061 2.82061 0 6.3 0H29.5486ZM33.2039 0L29.5691 6.62154C28.2289 9.06288 28.6507 12.0945 30.6065 14.0772L37.7482 21.3177C40.3562 23.9617 40.1229 28.2765 37.2449 30.6239L16.86 47.25H40.95C44.4294 47.25 47.25 44.4294 47.25 40.95V6.3C47.25 2.82061 44.4294 0 40.95 0H33.2039Z" fill="var(--fill-0, #F3F5F7)"/>
</svg>
