<svg width="233" height="27" viewBox="0 0 233 27" fill="none" xmlns="http://www.w3.org/2000/svg">
<!-- Mark -->
<path fill-rule="evenodd" clip-rule="evenodd" d="M16.8849 0L5.7651 9.20777C4.13402 10.5584 4.0154 13.0182 5.50895 14.5195L9.35592 18.3865C10.4846 19.521 10.7288 21.2645 9.95531 22.6655L7.56213 27H3.6C1.61177 27 0 25.3882 0 23.4V3.6C0 1.61177 1.61178 0 3.6 0H16.8849ZM18.9736 0L16.8966 3.78374C16.1308 5.17879 16.3718 6.91114 17.4894 8.04414L21.5704 12.1815C23.0607 13.6924 22.9274 16.158 21.2828 17.4993L9.6343 27H23.4C25.3882 27 27 25.3882 27 23.4V3.6C27 1.61178 25.3882 0 23.4 0H18.9736Z" fill="var(--fill-0, #32373B)"/>
<!-- Wordmark -->
<g transform="translate(34, 3.6)">
<path d="M5.44227 19.4013V13.8733H8.55214C13.4502 13.8733 16.5082 11.2156 16.5082 7.12268C16.5082 3.0298 13.4761 0.372081 8.60397 0.372081H0V19.4013H5.44227ZM5.44227 4.41181H7.982C9.822 4.41181 11.04 5.4749 11.04 7.12268C11.04 8.77047 9.822 9.83356 7.982 9.83356H5.44227V4.41181Z" fill="var(--fill-0, #32373B)"/>
<path d="M27.6738 19.8C33.8676 19.8 38.0659 15.9463 38.0659 9.88671C38.0659 3.82711 33.8676 0 27.6738 0C21.454 0 17.2557 3.82711 17.2557 9.88671C17.2557 15.9463 21.454 19.8 27.6738 19.8ZM27.6738 15.2021C24.7453 15.2021 22.7239 13.1025 22.7239 9.88671C22.7239 6.69745 24.7453 4.57127 27.6738 4.57127C30.6022 4.57127 32.5977 6.69745 32.5977 9.88671C32.5977 13.1025 30.6022 15.2021 27.6738 15.2021Z" fill="var(--fill-0, #32373B)"/>
<path d="M50.5605 19.4013L53.152 7.86685H53.4112L56.0027 19.4013H63.6219L68.6236 0.372081H63.1554L59.7087 14.3251H59.4495L56.0027 0.372081H50.5605L47.1396 14.3251H46.8805L43.4078 0.372081H37.9396L42.9413 19.4013H50.5605Z" fill="var(--fill-0, #32373B)"/>
<path d="M84.6052 19.4013V14.9895H75.3534V11.6142H82.234V7.97315H75.3534V4.78389H84.3461V0.372081H70.0666V19.4013H84.6052Z" fill="var(--fill-0, #32373B)"/>
<path d="M91.7958 19.4013V13.1291H93.1175L97.7305 19.4013H103.821L98.3524 12.7039L98.5598 12.6507C101.255 12.1458 103.225 9.96644 103.225 6.85691C103.225 2.97664 100.218 0.372081 95.6831 0.372081H86.3276V19.4013H91.7958ZM91.7958 4.41181H94.7242C96.4606 4.41181 97.7564 5.36859 97.7564 6.93664C97.7564 8.53128 96.4606 9.48805 94.7242 9.48805H91.7958V4.41181Z" fill="var(--fill-0, #32373B)"/>
<path d="M110.512 19.4013V11.7737H116.861V19.4013H122.329V0.372081H116.861V7.38846H110.512V0.372081H105.044V19.4013H110.512Z" fill="var(--fill-0, #32373B)"/>
<path d="M134.464 19.8C140.658 19.8 144.856 15.9463 144.856 9.88671C144.856 3.82711 140.658 0 134.464 0C128.244 0 124.046 3.82711 124.046 9.88671C124.046 15.9463 128.244 19.8 134.464 19.8ZM134.464 15.2021C131.536 15.2021 129.514 13.1025 129.514 9.88671C129.514 6.69745 131.536 4.57127 134.464 4.57127C137.393 4.57127 139.388 6.69745 139.388 9.88671C139.388 13.1025 137.393 15.2021 134.464 15.2021Z" fill="var(--fill-0, #32373B)"/>
<path d="M155.179 19.8C160.362 19.8 163.886 16.6107 163.886 11.5877V0.372081H158.418V11.4016C158.418 13.6872 157.122 15.2021 155.179 15.2021C153.209 15.2021 151.939 13.7138 151.939 11.4016V0.372081L146.471 3.67208V11.5877C146.471 16.6107 149.995 19.8 155.179 19.8Z" fill="var(--fill-0, #32373B)"/>
<path d="M174.003 19.8C179.186 19.8 182.581 17.3549 182.581 13.5809C182.581 8.98309 178.305 8.29208 175.143 7.81369C172.992 7.49477 171.152 7.25557 171.152 5.8204C171.152 4.75732 172.189 4.01315 173.925 4.01315C175.791 4.01315 177.009 4.96993 177.009 6.64429H181.959C181.959 2.71087 178.668 0 173.744 0C168.846 0 165.684 2.4451 165.684 6.21906C165.684 11.1093 170.504 11.5079 173.692 11.9597C175.584 12.2255 177.113 12.5444 177.113 13.9264C177.113 15.0958 175.972 15.7603 174.21 15.7603C171.981 15.7603 170.712 14.7238 170.686 13.1291H165.554C165.554 17.0626 168.923 19.8 174.003 19.8Z" fill="var(--fill-0, #32373B)"/>
<path d="M198.9 19.4013V14.9895H189.648V11.6142H196.529V7.97315H189.648V4.78389H198.641V0.372081H184.361V19.4013H198.9Z" fill="var(--fill-0, #32373B)"/>
</g>
</svg>
