<svg width="194.888" height="33.7777" overflow="visible" style="display: block;" viewBox="0 0 194.888 33.7777" fill="none" xmlns="http://www.w3.org/2000/svg">
<g id="Reactor">
<path id="Vector" d="M179.978 33.3187V6.24676H187.724V10.0368C188.766 8.24592 191.39 5.99687 194.888 5.83027V13.8686C190.723 13.8686 188.099 16.4925 188.099 20.6574V33.3187H179.978Z" fill="var(--fill-0, #343839)"/>
<path id="Vector_2" d="M160.79 33.7777C152.418 33.7777 146.588 28.1134 146.588 19.7419C146.588 11.4121 152.418 5.7478 160.79 5.7478C169.161 5.7478 174.992 11.4121 174.992 19.7419C174.992 28.1134 169.161 33.7777 160.79 33.7777ZM154.626 19.7419C154.626 23.6569 157.166 26.2808 160.79 26.2808C164.413 26.2808 166.954 23.6569 166.954 19.7419C166.954 15.9102 164.413 13.2863 160.79 13.2863C157.166 13.2863 154.626 15.9102 154.626 19.7419Z" fill="var(--fill-0, #343839)"/>
<path id="Vector_3" d="M131.105 33.3193V13.536H126.19V6.24737H131.105V0H139.185V6.24737H144.1V13.536H139.185V33.3193H131.105Z" fill="var(--fill-0, #343839)"/>
<path id="Vector_4" d="M109.617 33.7773C101.454 33.7773 95.623 28.1963 95.623 19.8248C95.623 11.495 101.454 5.78904 109.659 5.78904C117.406 5.78904 122.528 10.9119 123.653 17.9089H115.573C114.865 15.4516 112.699 13.3692 109.7 13.3692C106.244 13.3692 103.661 16.0347 103.661 19.8248C103.661 23.6565 106.285 26.2804 109.7 26.2804C112.283 26.2804 114.49 24.8644 115.365 22.4904H123.611C122.237 29.1542 117.156 33.7773 109.617 33.7773Z" fill="var(--fill-0, #343839)"/>
<path id="Vector_5" d="M74.8907 33.7773C67.8104 33.7773 62.3127 28.0713 62.3127 19.7415C62.3127 11.4533 67.8104 5.78904 74.8907 5.78904C78.2227 5.78904 80.9715 7.03851 82.929 9.16262V6.24718H90.6341V33.3191H82.929V30.362C80.9715 32.5278 78.2227 33.7773 74.8907 33.7773ZM70.2677 19.7832C70.2677 23.6149 72.7666 26.1971 76.3484 26.1971C79.8886 26.1971 82.4292 23.6149 82.4292 19.7832C82.4292 15.9514 79.8886 13.4108 76.3484 13.4108C72.7666 13.4108 70.2677 15.9514 70.2677 19.7832Z" fill="var(--fill-0, #343839)"/>
<path id="Vector_6" d="M44.5388 33.7773C36.4172 33.7773 30.6696 28.113 30.6696 19.8248C30.6696 11.4533 36.5005 5.78904 44.872 5.78904C54.0348 5.78904 59.9073 12.8277 58.8661 21.9073H38.458C38.9994 25.031 41.7066 26.9885 44.7887 26.9885C47.1627 26.9885 49.2868 25.8639 50.328 23.9064H58.4079C56.5337 29.9872 51.3276 33.7773 44.5388 33.7773ZM38.8328 16.9094L50.8278 16.8677C49.9115 14.3271 47.7458 12.7028 44.872 12.7028C41.9565 12.7028 39.7908 14.3271 38.8328 16.9094Z" fill="var(--fill-0, #343839)"/>
<path id="Vector_7" d="M0 33.3193V1.6306e-06H16.0349C22.4073 1.6306e-06 26.8637 4.33151 26.8637 10.5372C26.8637 15.2019 24.1565 18.992 20.0333 20.4914L28.4047 33.3193H19.2419L11.5785 21.2827H8.12159V33.3193H0ZM8.12159 13.9941H15.5351C17.451 13.9941 18.7421 12.6197 18.7421 10.6622C18.7421 8.66303 17.451 7.28861 15.5351 7.28861H8.12159V13.9941Z" fill="var(--fill-0, #343839)"/>
</g>
</svg>
