<svg width="211.128" height="41.9986" overflow="visible" style="display: block;" viewBox="0 0 211.128 41.9986" fill="none" xmlns="http://www.w3.org/2000/svg">
<g id="Renown">
<path id="Vector" d="M180.72 41.3115V9.44698H190.203V15.4305H190.396C191.224 13.3119 192.473 11.6992 194.146 10.5922C195.818 9.46606 197.831 8.90302 200.183 8.90302C203.602 8.90302 206.276 9.9623 208.206 12.0809C210.154 14.1995 211.128 17.1387 211.128 20.8987V41.3115H201.341V23.0746C201.341 21.2232 200.873 19.7822 199.935 18.7515C199.016 17.7018 197.721 17.1769 196.048 17.1769C194.394 17.1769 193.052 17.7495 192.023 18.8947C190.994 20.0398 190.479 21.519 190.479 23.3322V41.3115H180.72Z" fill="var(--fill-0, #F7F7F7)"/>
<path id="Vector_2" d="M178.953 9.44773L171.013 41.3122H160.482L155.547 19.697H155.354L150.447 41.3122H140.081L132.114 9.44773H141.956L145.953 32.0936H146.146L150.943 9.44773H160.262L165.114 32.0936H165.307L169.304 9.44773H178.953Z" fill="var(--fill-0, #F7F7F7)"/>
<path id="Vector_3" d="M127.621 37.6183C124.845 40.5385 121.022 41.9986 116.152 41.9986C111.281 41.9986 107.458 40.5385 104.683 37.6183C101.908 34.679 100.52 30.5945 100.52 25.3649C100.52 20.2307 101.926 16.1844 104.738 13.226C107.55 10.2486 111.355 8.75984 116.152 8.75984C120.967 8.75984 124.772 10.239 127.565 13.1974C130.377 16.1367 131.783 20.1925 131.783 25.3649C131.783 30.6136 130.396 34.6981 127.621 37.6183ZM111.934 32.1501C112.945 33.7342 114.351 34.5263 116.152 34.5263C117.953 34.5263 119.359 33.7342 120.37 32.1501C121.381 30.5468 121.886 28.2851 121.886 25.3649C121.886 22.521 121.372 20.2879 120.342 18.6656C119.313 17.0433 117.916 16.2321 116.152 16.2321C114.369 16.2321 112.963 17.0433 111.934 18.6656C110.923 20.2689 110.417 22.5019 110.417 25.3649C110.417 28.2851 110.923 30.5468 111.934 32.1501Z" fill="var(--fill-0, #F7F7F7)"/>
<path id="Vector_4" d="M67.4358 41.3115V9.44698H76.9196V15.4305H77.1126C77.9396 13.3119 79.1894 11.6992 80.862 10.5922C82.5345 9.46606 84.547 8.90302 86.8996 8.90302C90.3181 8.90302 92.9923 9.9623 94.9222 12.0809C96.8704 14.1995 97.8445 17.1387 97.8445 20.8987V41.3115H88.0575V23.0746C88.0575 21.2232 87.5888 19.7822 86.6514 18.7515C85.7325 17.7018 84.4367 17.1769 82.7642 17.1769C81.1101 17.1769 79.7684 17.7495 78.7391 18.8947C77.7099 20.0398 77.1953 21.519 77.1953 23.3322V41.3115H67.4358Z" fill="var(--fill-0, #F7F7F7)"/>
<path id="Vector_5" d="M49.7074 15.9744C48.1452 15.9744 46.8311 16.5184 45.7651 17.6063C44.6991 18.6942 44.1017 20.0875 43.9731 21.7862H55.3867C55.2948 20.0303 54.725 18.6274 53.6774 17.5777C52.6481 16.5089 51.3248 15.9744 49.7074 15.9744ZM55.6072 31.2912H64.4293C63.9515 34.5549 62.3984 37.1602 59.7701 39.107C57.1603 41.0347 53.8704 41.9986 49.9004 41.9986C45.0483 41.9986 41.2438 40.5385 38.4868 37.6183C35.7299 34.6981 34.3515 30.6709 34.3515 25.5367C34.3515 20.4025 35.7208 16.3275 38.4593 13.3119C41.1978 10.2772 44.9012 8.75984 49.5696 8.75984C54.1461 8.75984 57.7944 10.2104 60.5145 13.1115C63.253 15.9935 64.6223 19.8585 64.6223 24.7064V27.598H43.8628V28.2278C43.8628 30.1746 44.4326 31.7588 45.5721 32.9803C46.7116 34.1827 48.2003 34.784 50.0383 34.784C51.3983 34.784 52.5746 34.4786 53.5671 33.8678C54.5596 33.238 55.2396 32.3791 55.6072 31.2912Z" fill="var(--fill-0, #F7F7F7)"/>
<path id="Vector_6" d="M10.1178 7.93034V19.6684H16.1003C17.9566 19.6684 19.4086 19.1435 20.4562 18.0938C21.5038 17.044 22.0277 15.6221 22.0277 13.828C22.0277 12.053 21.4855 10.631 20.4011 9.56221C19.3167 8.4743 17.8739 7.93034 16.0727 7.93034H10.1178ZM10.1178 26.8544V41.3122H0V0H17.0928C22.0185 0 25.7954 1.19289 28.4237 3.57867C31.0519 5.96446 32.366 9.31409 32.366 13.6276C32.366 16.2233 31.7687 18.5805 30.5741 20.699C29.3794 22.7985 27.7161 24.335 25.5841 25.3084L33.5239 41.3122H22.1655L15.356 26.8544H10.1178Z" fill="var(--fill-0, #F7F7F7)"/>
</g>
</svg>
