<svg width="63" height="63" viewBox="0 0 63 63" fill="none" xmlns="http://www.w3.org/2000/svg">
<path d="M33.6708 10.1654C33.141 10.1654 32.7116 9.73595 32.7115 9.20616L32.7113 0.744364C40.9002 1.08396 48.2602 4.63041 53.5694 10.1659L33.6708 10.1654ZM32.7118 22.5066C32.7118 23.0364 33.1413 23.4659 33.6711 23.4659L61.0737 23.4666C60.0204 19.5295 58.204 15.9029 55.7952 12.7577L33.671 12.7573C33.1411 12.7573 32.7116 13.1868 32.7116 13.7166L32.7118 22.5066ZM9.25875 52.6623C14.5659 58.1958 21.9259 61.7422 30.1168 62.0838L30.1167 53.6221C30.1166 53.0923 29.6872 52.6628 29.1574 52.6628L9.25875 52.6623ZM32.7107 62.0818C40.8996 61.7426 48.2615 58.1945 53.5684 52.6613L33.6699 52.6609C33.14 52.6608 32.7105 53.0904 32.7105 53.6202L32.7107 62.0818ZM40.7123 40.3177C40.7123 39.7879 40.2829 39.3584 39.7531 39.3584L1.7545 39.3575C2.80778 43.2946 4.6221 46.9191 7.03297 50.0663L39.7532 50.0671C40.283 50.0671 40.7126 49.6376 40.7125 49.1078L40.7123 40.3177ZM15.8579 26.9925C15.8449 26.4723 15.4194 26.0573 14.8989 26.0573L1.17824 26.057C0.871784 27.7951 0.711352 29.5847 0.711395 31.4113C0.711438 33.2379 0.871967 35.0275 1.1785 36.7657L14.8946 36.7641C15.4161 36.764 15.8419 36.3475 15.8536 35.8262L15.96 31.0605L15.8579 26.9925ZM42.9016 49.11C42.9016 49.6398 43.3311 50.0693 43.8609 50.0693L55.794 50.0695C58.2047 46.9224 60.0189 43.298 61.072 39.361L43.8607 39.3606C43.3309 39.3606 42.9014 39.7901 42.9014 40.3199L42.9016 49.11ZM61.6456 26.0584L19.4387 26.0574C18.9089 26.0574 18.4794 26.4869 18.4794 27.0167L18.4796 35.8068C18.4796 36.3366 18.9091 36.7661 19.4389 36.7661L61.6458 36.7671C61.9523 35.029 62.1127 33.2394 62.1126 31.4128C62.1126 29.5862 61.9521 27.7966 61.6456 26.0584ZM30.1157 13.7164C30.1157 13.1866 29.6862 12.7572 29.1564 12.7571L7.0321 12.7566C4.62138 15.9037 2.80719 19.5281 1.7541 23.4652L29.1566 23.4658C29.6864 23.4659 30.1159 23.0363 30.1159 22.5065L30.1157 13.7164ZM30.1154 0.744342C21.9265 1.08355 14.5646 4.63167 9.25773 10.1649L29.1563 10.1653C29.6861 10.1653 30.1156 9.73582 30.1156 9.20599L30.1154 0.744342Z" fill="url(#paint0_linear_1168_4283)"/>
<defs>
<linearGradient id="paint0_linear_1168_4283" x1="9.70653" y1="9.70655" x2="53.1196" y2="53.1196" gradientUnits="userSpaceOnUse">
<stop stop-color="#CC00FF"/>
<stop offset="1" stop-color="#8D45FA"/>
</linearGradient>
</defs>
</svg>
