<svg width="822" height="822" viewBox="0 0 822 822" fill="none" xmlns="http://www.w3.org/2000/svg">
<rect width="822" height="822" fill="#1B1A1D"/>
<path d="M152.048 378.218C152.048 377.832 151.826 377.48 151.477 377.315L140.681 372.189C140.341 372.028 139.939 372.071 139.641 372.301L108.368 396.433L120.323 405.565L137.323 392.447V425.52L68.2501 372.641C67.952 372.413 67.5512 372.371 67.2123 372.532L56.57 377.601C56.2218 377.767 56 378.118 56 378.504V439.704C56 440.09 56.2222 440.442 56.5709 440.607L67.3671 445.737C67.7072 445.898 68.1091 445.855 68.4072 445.625L99.4694 421.655L87.515 412.522L70.7252 425.479V392.689L139.769 445.583C140.067 445.812 140.468 445.854 140.807 445.692L151.478 440.608C151.826 440.442 152.048 440.091 152.048 439.705V378.218Z" fill="white"/>
<path d="M210.38 442.61C205.449 442.61 201.031 441.82 197.125 440.24C193.219 438.66 190.082 436.321 187.712 433.224C185.407 430.126 184.191 426.397 184.062 422.036H201.543C201.799 424.501 202.664 426.397 204.137 427.724C205.609 428.989 207.53 429.621 209.899 429.621C212.333 429.621 214.254 429.083 215.662 428.009C217.071 426.871 217.775 425.322 217.775 423.363C217.775 421.72 217.199 420.36 216.047 419.286C214.958 418.211 213.581 417.326 211.916 416.631C210.316 415.936 208.011 415.146 205.001 414.261C200.647 412.933 197.093 411.606 194.34 410.279C191.586 408.951 189.217 406.992 187.232 404.4C185.247 401.808 184.255 398.427 184.255 394.255C184.255 388.06 186.528 383.225 191.074 379.748C195.62 376.208 201.543 374.439 208.843 374.439C216.271 374.439 222.258 376.208 226.804 379.748C231.35 383.225 233.783 388.092 234.104 394.35H216.335C216.207 392.2 215.406 390.525 213.933 389.324C212.461 388.06 210.572 387.428 208.267 387.428C206.282 387.428 204.681 387.965 203.464 389.04C202.248 390.051 201.639 391.537 201.639 393.496C201.639 395.645 202.664 397.32 204.713 398.521C206.762 399.722 209.963 401.018 214.318 402.409C218.672 403.863 222.194 405.253 224.883 406.581C227.636 407.908 230.006 409.836 231.991 412.364C233.976 414.893 234.968 418.148 234.968 422.13C234.968 425.923 233.976 429.368 231.991 432.465C230.07 435.562 227.252 438.028 223.538 439.861C219.824 441.694 215.438 442.61 210.38 442.61Z" fill="white"/>
<path d="M318.168 389.04L303.665 441.947H285.512L277.06 407.624L268.319 441.947H250.262L235.663 389.04H252.087L259.675 426.871L268.703 389.04H286.088L295.213 426.681L302.705 389.04H318.168Z" fill="white"/>
<path d="M328.85 383.541C325.968 383.541 323.599 382.719 321.742 381.076C319.949 379.369 319.053 377.283 319.053 374.818C319.053 372.289 319.949 370.203 321.742 368.56C323.599 366.853 325.968 366 328.85 366C331.667 366 333.972 366.853 335.765 368.56C337.622 370.203 338.551 372.289 338.551 374.818C338.551 377.283 337.622 379.369 335.765 381.076C333.972 382.719 331.667 383.541 328.85 383.541ZM337.014 389.04V441.947H320.59V389.04H337.014Z" fill="white"/>
<path d="M374.945 428.199V441.947H366.589C360.634 441.947 355.992 440.524 352.662 437.68C349.333 434.772 347.668 430.063 347.668 423.553V402.504H341.137V389.04H347.668V376.145H364.092V389.04H374.849V402.504H364.092V423.742C364.092 425.322 364.476 426.46 365.245 427.156C366.013 427.851 367.294 428.199 369.087 428.199H374.945Z" fill="white"/>
<path d="M376.987 415.493C376.987 409.994 378.107 405.19 380.348 401.081C382.653 396.973 385.823 393.812 389.857 391.6C393.955 389.388 398.629 388.281 403.88 388.281C410.603 388.281 416.206 390.02 420.688 393.496C425.235 396.973 428.212 401.872 429.621 408.193H412.14C410.667 404.147 407.818 402.124 403.592 402.124C400.582 402.124 398.181 403.294 396.388 405.633C394.595 407.908 393.699 411.195 393.699 415.493C393.699 419.792 394.595 423.11 396.388 425.449C398.181 427.724 400.582 428.862 403.592 428.862C407.818 428.862 410.667 426.84 412.14 422.794H429.621C428.212 428.989 425.235 433.856 420.688 437.396C416.142 440.935 410.539 442.705 403.88 442.705C398.629 442.705 393.955 441.599 389.857 439.387C385.823 437.174 382.653 434.014 380.348 429.905C378.107 425.797 376.987 420.993 376.987 415.493Z" fill="white"/>
<path d="M467.509 388.471C473.656 388.471 478.586 390.494 482.3 394.539C486.014 398.521 487.871 404.021 487.871 411.037V441.947H471.543V413.218C471.543 409.678 470.614 406.928 468.758 404.969C466.901 403.009 464.403 402.03 461.266 402.03C458.128 402.03 455.631 403.009 453.774 404.969C451.917 406.928 450.989 409.678 450.989 413.218V441.947H434.564V371.784H450.989V396.151C452.653 393.812 454.927 391.948 457.808 390.557C460.69 389.166 463.923 388.471 467.509 388.471Z" fill="white"/>
<path d="M511.867 396.53C513.403 394.065 515.613 392.074 518.494 390.557C521.375 389.04 524.673 388.281 528.387 388.281C532.805 388.281 536.807 389.388 540.393 391.6C543.979 393.812 546.796 396.973 548.845 401.081C550.958 405.19 552.015 409.962 552.015 415.399C552.015 420.835 550.958 425.639 548.845 429.81C546.796 433.919 543.979 437.111 540.393 439.387C536.807 441.599 532.805 442.705 528.387 442.705C524.609 442.705 521.311 441.978 518.494 440.524C515.677 439.007 513.467 437.016 511.867 434.551V441.947H495.442V371.784H511.867V396.53ZM535.302 415.399C535.302 411.353 534.15 408.193 531.845 405.917C529.604 403.578 526.818 402.409 523.488 402.409C520.223 402.409 517.437 403.578 515.132 405.917C512.891 408.256 511.771 411.448 511.771 415.493C511.771 419.539 512.891 422.731 515.132 425.07C517.437 427.408 520.223 428.578 523.488 428.578C526.754 428.578 529.54 427.408 531.845 425.07C534.15 422.668 535.302 419.444 535.302 415.399Z" fill="white"/>
<path d="M581.186 442.705C575.935 442.705 571.197 441.599 566.971 439.387C562.808 437.174 559.511 434.014 557.078 429.905C554.708 425.797 553.524 420.993 553.524 415.493C553.524 410.057 554.74 405.285 557.174 401.176C559.607 397.004 562.937 393.812 567.163 391.6C571.389 389.388 576.127 388.281 581.378 388.281C586.628 388.281 591.367 389.388 595.593 391.6C599.819 393.812 603.149 397.004 605.582 401.176C608.015 405.285 609.232 410.057 609.232 415.493C609.232 420.929 607.983 425.733 605.486 429.905C603.053 434.014 599.691 437.174 595.401 439.387C591.175 441.599 586.436 442.705 581.186 442.705ZM581.186 428.673C584.323 428.673 586.981 427.535 589.158 425.259C591.399 422.984 592.519 419.728 592.519 415.493C592.519 411.258 591.431 408.003 589.254 405.727C587.141 403.452 584.515 402.314 581.378 402.314C578.176 402.314 575.519 403.452 573.406 405.727C571.293 407.94 570.236 411.195 570.236 415.493C570.236 419.728 571.261 422.984 573.31 425.259C575.423 427.535 578.048 428.673 581.186 428.673Z" fill="white"/>
<path d="M610.838 415.399C610.838 409.962 611.862 405.19 613.911 401.081C616.024 396.973 618.874 393.812 622.459 391.6C626.045 389.388 630.047 388.281 634.465 388.281C638.243 388.281 641.541 389.04 644.358 390.557C647.24 392.074 649.449 394.065 650.986 396.53V389.04H667.41V441.947H650.986V434.456C649.385 436.921 647.144 438.913 644.262 440.43C641.445 441.947 638.147 442.705 634.369 442.705C630.015 442.705 626.045 441.599 622.459 439.387C618.874 437.111 616.024 433.919 613.911 429.81C611.862 425.639 610.838 420.835 610.838 415.399ZM650.986 415.493C650.986 411.448 649.833 408.256 647.528 405.917C645.287 403.578 642.533 402.409 639.268 402.409C636.002 402.409 633.217 403.578 630.912 405.917C628.671 408.193 627.55 411.353 627.55 415.399C627.55 419.444 628.671 422.668 630.912 425.07C633.217 427.408 636.002 428.578 639.268 428.578C642.533 428.578 645.287 427.408 647.528 425.07C649.833 422.731 650.986 419.539 650.986 415.493Z" fill="white"/>
<path d="M691.874 397.858C693.795 394.95 696.197 392.675 699.078 391.031C701.96 389.324 705.161 388.471 708.683 388.471V405.633H704.169C700.071 405.633 696.997 406.518 694.948 408.287C692.899 409.994 691.874 413.028 691.874 417.39V441.947H675.45V389.04H691.874V397.858Z" fill="white"/>
<path d="M709.426 415.399C709.426 409.962 710.45 405.19 712.499 401.081C714.612 396.973 717.462 393.812 721.048 391.6C724.633 389.388 728.635 388.281 733.054 388.281C736.575 388.281 739.777 389.008 742.658 390.462C745.604 391.916 747.909 393.876 749.574 396.341V371.784H765.998V441.947H749.574V434.361C748.037 436.89 745.828 438.913 742.947 440.43C740.129 441.947 736.832 442.705 733.054 442.705C728.635 442.705 724.633 441.599 721.048 439.387C717.462 437.111 714.612 433.919 712.499 429.81C710.45 425.639 709.426 420.835 709.426 415.399ZM749.574 415.493C749.574 411.448 748.421 408.256 746.116 405.917C743.875 403.578 741.122 402.409 737.856 402.409C734.59 402.409 731.805 403.578 729.5 405.917C727.259 408.193 726.138 411.353 726.138 415.399C726.138 419.444 727.259 422.668 729.5 425.07C731.805 427.408 734.59 428.578 737.856 428.578C741.122 428.578 743.875 427.408 746.116 425.07C748.421 422.731 749.574 419.539 749.574 415.493Z" fill="white"/>
<path d="M152.048 378.218C152.048 377.832 151.826 377.48 151.477 377.314L140.681 372.189C140.341 372.027 139.939 372.071 139.641 372.301L108.368 396.432L120.323 405.565L137.323 392.446V425.52L68.2501 372.641C67.952 372.413 67.5512 372.371 67.2123 372.532L56.57 377.601C56.2218 377.767 56 378.118 56 378.504V439.704C56 440.09 56.2222 440.442 56.5709 440.607L67.3671 445.737C67.7072 445.898 68.1091 445.855 68.4072 445.625L99.4694 421.655L87.515 412.522L70.7252 425.479V392.689L139.769 445.583C140.067 445.812 140.468 445.854 140.807 445.692L151.478 440.608C151.826 440.442 152.048 440.09 152.048 439.705V378.218Z" fill="white"/>
</svg>
