<svg width="62" height="50" viewBox="0 0 62 50" fill="none" xmlns="http://www.w3.org/2000/svg">
<path d="M61.3954 4.73537C61.3954 3.96699 60.9728 3.26659 60.3083 2.93356L54.8492 0.197564C54.1914 -0.132101 53.4111 -0.0442662 52.836 0.42417L33.4745 16.196L41.1159 22.3584L51.9828 13.5063V35.8236L8.45913 0.650027C7.88377 0.185049 7.10542 0.0995294 6.44965 0.42924L1.08489 3.12657C0.421577 3.46007 0 4.15982 0 4.9273V44.5649C0 45.333 0.422341 46.0333 1.08657 46.3664L6.54598 49.1045C7.20386 49.4345 7.98443 49.3467 8.55963 48.8781L27.7863 33.2157L20.1449 27.0532L9.41255 35.7963V13.6699L52.9175 48.8536C53.493 49.319 54.2717 49.4046 54.9277 49.0746L60.3107 46.367C60.9739 46.0335 61.3954 45.3338 61.3954 44.5664V4.73537Z" fill="url(#paint0_linear_1167_4278)"/>
<defs>
<linearGradient id="paint0_linear_1167_4278" x1="61.3953" y1="23.6526" x2="-1.9232" y2="21.8114" gradientUnits="userSpaceOnUse">
<stop stop-color="#F2CB29"/>
<stop offset="1" stop-color="#F2462A"/>
</linearGradient>
</defs>
</svg>
