<svg xmlns="http://www.w3.org/2000/svg" width="356" height="32" fill="none"><g fill="#fff" clip-path="url(#a)"><path d="M342.777 25.366c-.044 0-.109-.142-.196-.425a7.341 7.341 0 0 1-.229-.882c-.065-.327-.098-.545-.098-.654l.098-.196 10.427-5.165-10.394-5.066-.098-.294c.239-1.243.425-1.864.555-1.864l.164.066 12.192 6.112c.392.196.588.458.588.785 0 .632-.196 1.067-.588 1.307L342.94 25.3c-.13.044-.185.066-.163.066Zm-13.657.654a1.65 1.65 0 0 1-.327-.034.391.391 0 0 1-.262-.196L338.207.72c.218-.48.751-.72 1.601-.72.545 0 .948.065 1.21.196l-9.676 25.071c-.043.131-.294.284-.751.458a3.696 3.696 0 0 1-1.471.294Zm-12.147-.916c-1.198 0-2.233-.37-3.105-1.112-.85-.762-1.275-1.983-1.275-3.66V12.78h-2.124c-.175 0-.262-.337-.262-1.013a.83.83 0 0 1 .065-.36 26.258 26.258 0 0 0 1.635-.882c.501-.305.937-.6 1.307-.882.959-.763 1.656-1.34 2.092-1.733.436-.392.665-.6.687-.62.174 0 .359.043.555.13.196.065.295.141.295.229v3.203h3.53c.174 0 .261.109.261.327 0 .654-.109 1.188-.327 1.601h-3.464v7.747c0 1.657.588 2.485 1.765 2.485.61 0 1.035-.077 1.274-.23.262-.174.436-.26.523-.26.088 0 .175.108.262.326.109.218.163.382.163.49 0 .175-.218.404-.653.687-.414.283-.926.534-1.537.752-.588.218-1.144.327-1.667.327Zm-13.757.101a9.549 9.549 0 0 1-1.667-.164 9.694 9.694 0 0 1-1.7-.457c-.523-.197-.926-.404-1.209-.622-.262-1.503-.392-2.832-.392-3.987.108-.066.272-.098.49-.098.697 0 1.057.098 1.079.294.37 2.157 1.547 3.236 3.53 3.236.523 0 .959-.12 1.307-.36.349-.24.523-.599.523-1.078 0-.458-.185-.85-.555-1.177a6.555 6.555 0 0 0-1.308-.883 458.83 458.83 0 0 1-1.373-.719c-1.264-.61-2.201-1.275-2.811-1.994-.61-.74-.915-1.645-.915-2.713 0-1.002.261-1.809.784-2.419.523-.632 1.221-1.1 2.092-1.405a8.453 8.453 0 0 1 2.811-.458c1.896 0 3.313.218 4.25.654.218.959.327 2.31.327 4.053 0 .196-.142.294-.425.294-.676 0-1.035-.087-1.079-.261-.196-.915-.534-1.635-1.013-2.158-.458-.522-1.199-.784-2.223-.784-.479 0-.872.12-1.177.36-.305.217-.457.544-.457.98 0 .501.218.937.653 1.308.436.348 1.079.73 1.929 1.144a16.32 16.32 0 0 1 2.092 1.144c.675.414 1.22.937 1.634 1.569.436.61.654 1.383.654 2.32 0 1.439-.556 2.528-1.667 3.27-1.09.74-2.484 1.11-4.184 1.11Zm-15.284-.2c-.087-.087-.131-.294-.131-.62 0-.328.044-.491.131-.491.174 0 .403-.044.686-.13.284-.088.556-.197.818-.328.261-.13.403-.25.424-.36.153-.61.229-1.438.229-2.483V15.82c0-1.22-.196-2.037-.588-2.451a1.373 1.373 0 0 0-.719-.458 3.927 3.927 0 0 0-.752-.163c-.218-.044-.327-.088-.327-.131 0-.632.055-.948.164-.948.196 0 .555-.044 1.078-.13a45.672 45.672 0 0 0 1.733-.328 60.74 60.74 0 0 0 1.83-.392c.589-.13 1.035-.24 1.34-.327l.36-.098c.109 0 .218.076.327.229.109.13.163.24.163.327-.109.959-.196 1.71-.261 2.255-.066.545-.098.883-.098 1.014v5.883c0 1.242.087 2.234.261 2.975.044.087.185.196.425.327.262.13.534.25.817.36.284.086.48.13.589.13.065 0 .098.163.098.49.021.327.011.534-.033.621a30.228 30.228 0 0 0-1.111-.098 55.458 55.458 0 0 1-1.733-.098 21.389 21.389 0 0 0-1.438-.065c-.349 0-.828.022-1.438.065-.61.044-1.188.076-1.733.098-.544.044-.915.076-1.111.098Zm4.119-17.847a2.42 2.42 0 0 1-1.733-.686 2.417 2.417 0 0 1-.686-1.733c0-.675.228-1.242.686-1.7a2.364 2.364 0 0 1 1.733-.719c.675 0 1.242.24 1.699.72.48.457.719 1.024.719 1.7a2.36 2.36 0 0 1-.719 1.732c-.457.457-1.024.686-1.699.686Zm-14.768 17.847c-.087-.087-.131-.316-.131-.687 0-.348.044-.523.131-.523.174 0 .425-.043.752-.13.327-.11.632-.23.915-.36.283-.13.436-.24.458-.327.152-.61.229-1.438.229-2.484V7.517c0-.501-.022-.948-.066-1.34-.022-.392-.054-.73-.098-1.014-.087-.348-.654-.523-1.7-.523h-.294c-.131 0-.196-.217-.196-.653 0-.37.065-.556.196-.556a24.883 24.883 0 0 0 3.563-.556c1.133-.261 1.94-.468 2.419-.62l.327-.099h.065c.087 0 .175.066.262.196.087.131.141.251.163.36a14.448 14.448 0 0 0-.359 3.301l-.033 13.99c0 1.439.076 2.43.229 2.975.043.087.207.196.49.327.283.13.578.25.883.36.326.087.555.13.686.13.044 0 .076.087.098.262.022.174.033.36.033.555 0 .197-.022.327-.066.393-.13 0-.381-.022-.751-.066a87.58 87.58 0 0 0-1.308-.065 33.788 33.788 0 0 0-1.373-.098 21.978 21.978 0 0 0-1.046-.033c-.261 0-.621.011-1.078.033-.436.022-.894.054-1.373.098-.48.022-.905.044-1.275.065a7.904 7.904 0 0 1-.752.066Zm-11.693.102c-1.198 0-2.157-.327-2.876-.981-.697-.676-1.046-1.515-1.046-2.517 0-.85.261-1.59.784-2.223a5.874 5.874 0 0 1 2.027-1.503c.305-.131.588-.24.85-.327.261-.11.501-.207.719-.294a23.77 23.77 0 0 1 1.994-.556c.501-.13.872-.24 1.111-.327.196-.065.295-.229.295-.49v-1.177c0-1.787-.545-2.68-1.635-2.68-1.264 0-1.896.73-1.896 2.19 0 .48-.196.839-.588 1.078a2.646 2.646 0 0 1-1.308.327c-1.002 0-1.688-.327-2.059-.98 0-.567.196-1.112.589-1.635.414-.523.947-.991 1.601-1.405a8.497 8.497 0 0 1 2.256-1.014 8.62 8.62 0 0 1 2.549-.392c1.526 0 2.691.425 3.498 1.275.828.828 1.242 2.343 1.242 4.543v5.296c0 .74.261 1.111.784 1.111.393 0 .763-.141 1.112-.425.152.087.229.25.229.49 0 .567-.077.97-.229 1.21-.305.283-.807.588-1.504.915-.675.305-1.318.458-1.928.458a2.76 2.76 0 0 1-1.504-.458c-.479-.327-.795-.697-.948-1.111-.022 0-.142.076-.36.229a9.73 9.73 0 0 0-.49.36 6.883 6.883 0 0 1-1.503.718 5.362 5.362 0 0 1-1.766.295Zm2.06-2.354c.566 0 1.002-.13 1.307-.392.327-.283.491-.621.491-1.014v-3.3l-1.7.587a4.25 4.25 0 0 0-1.275.687c-.37.305-.556.708-.556 1.21 0 .784.164 1.35.491 1.7.348.348.762.522 1.242.522Zm-11.235 2.351c-1.199 0-2.234-.37-3.106-1.112-.849-.762-1.274-1.983-1.274-3.66V12.78h-2.125c-.174 0-.262-.337-.262-1.013 0-.152.022-.272.066-.36.61-.304 1.155-.599 1.634-.882.501-.305.937-.6 1.308-.882.958-.763 1.656-1.34 2.092-1.733l.686-.62c.174 0 .36.043.556.13.196.065.294.141.294.229v3.203h3.53c.175 0 .262.109.262.327 0 .654-.109 1.188-.327 1.601h-3.465v7.747c0 1.657.588 2.485 1.765 2.485.61 0 1.035-.077 1.275-.23.261-.174.436-.26.523-.26.087 0 .174.108.261.326.109.218.164.382.164.49 0 .175-.218.404-.654.687-.414.283-.926.534-1.536.752-.589.218-1.144.327-1.667.327Zm-16.569-.099c-.087-.087-.131-.294-.131-.62 0-.328.044-.491.131-.491.174 0 .403-.044.686-.13.284-.088.556-.197.818-.328.261-.13.403-.25.425-.36.152-.61.228-1.438.228-2.483V15.82c0-1.22-.196-2.037-.588-2.451a1.373 1.373 0 0 0-.719-.458 3.927 3.927 0 0 0-.752-.163c-.218-.044-.327-.088-.327-.131 0-.632.055-.948.164-.948.196 0 .555-.044 1.078-.13a45.672 45.672 0 0 0 1.733-.328 60.74 60.74 0 0 0 1.83-.392c.589-.13 1.035-.24 1.34-.327l.36-.098c.109 0 .218.076.327.229.109.13.163.24.163.327-.109.959-.196 1.71-.261 2.255-.066.545-.098.883-.098 1.014v5.883c0 1.242.087 2.234.261 2.975.044.087.185.196.425.327.262.13.534.25.817.36.284.086.48.13.589.13.065 0 .098.163.098.49.022.327.011.534-.033.621a30.228 30.228 0 0 0-1.111-.098 55.458 55.458 0 0 1-1.733-.098 21.389 21.389 0 0 0-1.438-.065c-.349 0-.828.022-1.438.065-.61.044-1.188.076-1.733.098-.544.044-.915.076-1.111.098Zm4.119-17.847a2.42 2.42 0 0 1-1.733-.686 2.421 2.421 0 0 1-.686-1.733c0-.675.229-1.242.686-1.7a2.364 2.364 0 0 1 1.733-.719c.675 0 1.242.24 1.699.72.48.457.719 1.024.719 1.7a2.36 2.36 0 0 1-.719 1.732c-.457.457-1.024.686-1.699.686Zm-22.444 24.843c-.087-.087-.13-.305-.13-.653 0-.371.043-.556.13-.556.175 0 .425-.055.752-.164.327-.087.632-.196.915-.326.284-.131.436-.24.458-.327.153-.61.229-1.439.229-2.485V16.017c0-1.22-.196-2.037-.589-2.451a1.372 1.372 0 0 0-.719-.458 3.935 3.935 0 0 0-.751-.164c-.218-.043-.327-.087-.327-.13 0-.763.054-1.144.163-1.144.676 0 1.449-.076 2.321-.23a40.472 40.472 0 0 0 2.942-.718c.654-.218 1.013-.327 1.078-.327.131 0 .197.142.197.425 0 .065-.011.152-.033.261 0 .088-.011.197-.033.327.937-.74 1.94-1.111 3.007-1.111 1.395 0 2.626.338 3.694 1.013a6.984 6.984 0 0 1 2.55 2.615 6.916 6.916 0 0 1 .948 3.53c0 1.613-.36 2.997-1.079 4.152-.697 1.133-1.667 2.005-2.909 2.615-1.221.61-2.615.915-4.184.915-.523 0-.959-.055-1.308-.163-.348-.088-.544-.131-.588-.131-.087 0-.131.174-.131.523V27c0 1.438.076 2.43.229 2.975.044.087.207.196.49.326.284.131.578.24.883.327.327.11.556.164.686.164.044 0 .077.087.098.261.022.175.033.36.033.556 0 .196-.022.327-.065.392-.131 0-.382-.022-.752-.065a47.753 47.753 0 0 1-1.308-.098c-.479-.022-.937-.044-1.372-.066A22.016 22.016 0 0 0 226 31.74c-.262 0-.622.01-1.079.032-.436.022-.894.044-1.373.066a40.36 40.36 0 0 1-1.275.098c-.37.043-.621.065-.752.065Zm9.153-8.63c1.961 0 2.942-1.612 2.942-4.837 0-4.227-.992-6.341-2.975-6.341-.763 0-1.373.229-1.83.686-.458.458-.687 1.035-.687 1.733v6.178c0 .828.273 1.47.817 1.928.545.436 1.123.654 1.733.654Zm-20.787 1.736c-1.198 0-2.157-.327-2.876-.981-.697-.676-1.046-1.515-1.046-2.517 0-.85.261-1.59.784-2.223a5.874 5.874 0 0 1 2.027-1.503c.305-.131.588-.24.85-.327.261-.11.501-.207.719-.294a23.77 23.77 0 0 1 1.994-.556c.501-.13.872-.24 1.111-.327.196-.065.294-.229.294-.49v-1.177c0-1.787-.544-2.68-1.634-2.68-1.264 0-1.896.73-1.896 2.19 0 .48-.196.839-.588 1.078a2.646 2.646 0 0 1-1.308.327c-1.002 0-1.689-.327-2.059-.98 0-.567.196-1.112.588-1.635.414-.523.948-.991 1.602-1.405a8.482 8.482 0 0 1 2.256-1.014 8.62 8.62 0 0 1 2.549-.392c1.526 0 2.691.425 3.498 1.275.828.828 1.242 2.343 1.242 4.543v5.296c0 .74.261 1.111.784 1.111.393 0 .763-.141 1.112-.425.152.087.228.25.228.49 0 .567-.076.97-.228 1.21-.305.283-.807.588-1.504.915-.676.305-1.318.458-1.929.458a2.756 2.756 0 0 1-1.503-.458c-.48-.327-.796-.697-.948-1.111-.022 0-.142.076-.36.229a9.283 9.283 0 0 0-.49.36 6.87 6.87 0 0 1-1.504.718 5.356 5.356 0 0 1-1.765.295Zm2.06-2.354c.566 0 1.002-.13 1.307-.392.327-.283.49-.621.49-1.014v-3.3l-1.699.587a4.25 4.25 0 0 0-1.275.687c-.371.305-.556.708-.556 1.21 0 .784.164 1.35.491 1.7.348.348.762.522 1.242.522Zm-16.139 2.352a9.796 9.796 0 0 1-4.054-.85 10.797 10.797 0 0 1-3.334-2.32 11.302 11.302 0 0 1-2.255-3.432 10.68 10.68 0 0 1-.817-4.152c0-1.547.272-2.996.817-4.347a11.301 11.301 0 0 1 2.255-3.596 10.659 10.659 0 0 1 3.432-2.451c1.33-.589 2.757-.883 4.282-.883 1.199 0 2.419.087 3.661.262 1.243.152 2.517.381 3.825.686.131.044.272.774.425 2.19.087.806.152 1.438.196 1.896.065.458.043.785-.065.98-.109.175-.371.262-.785.262l-.523-.098a5.836 5.836 0 0 0-.523-1.242c-.24-.436-.61-.904-1.111-1.406-.48-.5-1.155-.904-2.027-1.209-.872-.327-1.841-.49-2.909-.49-3.901 0-5.851 2.92-5.851 8.76 0 1.809.261 3.454.784 4.936.545 1.46 1.33 2.615 2.354 3.465 1.046.85 2.299 1.274 3.759 1.274 1.612 0 3.007-.588 4.184-1.765.349-.348.61-.74.784-1.177.196-.457.338-.86.425-1.209.109-.349.207-.523.294-.523.894 0 1.384.109 1.471.327 0 .152-.054.48-.163.98-.087.48-.207 1.014-.36 1.602-.13.567-.272 1.068-.425 1.504-.152.414-.283.643-.392.686-2.484.894-4.936 1.34-7.354 1.34Zm-18.168-.001a7.086 7.086 0 0 1-3.694-1.014 7.791 7.791 0 0 1-2.68-2.713 7.323 7.323 0 0 1-.981-3.726c0-1.395.294-2.648.883-3.759a6.994 6.994 0 0 1 2.517-2.648c1.067-.653 2.299-.98 3.693-.98 1.373 0 2.539.327 3.498.98.98.632 1.721 1.428 2.223 2.386.523.938.784 1.885.784 2.844 0 .502-.109.828-.327.98-.196.153-.599.23-1.209.23h-7.388c-.13 0-.196.076-.196.229 0 .784.142 1.525.425 2.222a4.245 4.245 0 0 0 1.308 1.7c.588.436 1.296.654 2.124.654a6.28 6.28 0 0 0 2.06-.327c.436-.13.773-.25 1.013-.36.24-.109.458-.229.654-.36.218-.152.468-.337.752-.555.196.087.294.294.294.621 0 .283-.044.501-.131.654-.131.349-.479.752-1.046 1.21-.545.457-1.22.86-2.027 1.209a6.202 6.202 0 0 1-2.549.523Zm-2.648-9.218h4.151c.306 0 .458-.207.458-.621 0-.828-.229-1.57-.686-2.223-.436-.654-1.003-.98-1.7-.98-.632 0-1.133.228-1.504.686a4.117 4.117 0 0 0-.752 1.47c-.13.546-.196.992-.196 1.341 0 .218.077.327.229.327Zm-11.398 9.218c-1.394 0-2.647-.338-3.759-1.014a7.443 7.443 0 0 1-2.647-2.745c-.654-1.155-.981-2.441-.981-3.857 0-1.351.349-2.572 1.046-3.661a7.462 7.462 0 0 1 2.811-2.583c1.199-.653 2.517-.98 3.955-.98 1.112 0 2.136.196 3.073.588.937.37 1.612.817 2.027 1.34 0 2.005-.589 3.008-1.766 3.008-.849 0-1.492-.545-1.928-1.635-.196-.501-.447-.872-.752-1.111-.283-.262-.686-.393-1.209-.393-1.744 0-2.615 1.635-2.615 4.904 0 3.682 1.231 5.524 3.693 5.524a6.28 6.28 0 0 0 2.06-.327c.435-.13.773-.25 1.013-.36.24-.109.458-.229.654-.36.218-.152.468-.337.751-.555.197.087.295.294.295.621 0 .283-.044.501-.131.654-.131.349-.469.762-1.013 1.242-.545.458-1.221.86-2.027 1.21a6.563 6.563 0 0 1-2.55.49Zm-22.088-.098c-.087-.087-.131-.316-.131-.687 0-.348.044-.523.131-.523.174 0 .425-.043.752-.13a8.97 8.97 0 0 0 .915-.36c.283-.13.436-.24.457-.327.153-.61.229-1.438.229-2.484v-4.478c0-1.22-.196-2.038-.588-2.452a1.372 1.372 0 0 0-.719-.457 3.944 3.944 0 0 0-.752-.164c-.218-.044-.327-.087-.327-.13 0-.763.055-1.145.163-1.145.567 0 1.352-.12 2.354-.36a80.117 80.117 0 0 1 3.236-.751l.752-.164c.109 0 .218.077.327.23.109.13.163.239.163.326-.022.13-.054.392-.098.785-.022.392-.044.61-.065.653 1.089-1.416 2.321-2.124 3.693-2.124.981 0 1.918.403 2.811 1.21 0 1.132-.141 1.971-.424 2.516-.262.545-.752.817-1.471.817-.436 0-.937-.25-1.504-.752-.567-.5-1.068-.751-1.504-.751-.435 0-.784.174-1.046.523-.261.326-.457.751-.588 1.274a7.993 7.993 0 0 0-.163 1.635v3.301c0 1.417.076 2.397.228 2.942.044.087.197.196.458.327.262.13.545.25.85.36.305.087.512.13.621.13.044 0 .076.087.098.262.022.174.033.36.033.555 0 .197-.022.327-.066.393a30.091 30.091 0 0 0-1.111-.098 59.257 59.257 0 0 1-1.798-.099 21.389 21.389 0 0 0-1.438-.065c-.262 0-.621.011-1.079.033-.436.022-.893.054-1.373.098-.479.022-.904.044-1.274.065a7.954 7.954 0 0 1-.752.066Zm-7.642.032c-.131 0-.196-.196-.196-.588v-1.21c0-.174-.044-.217-.131-.13-.457.48-1.133.915-2.026 1.307a6.853 6.853 0 0 1-2.844.589 3.51 3.51 0 0 1-2.256-.785c-.632-.523-1.122-1.22-1.471-2.092-.348-.893-.523-1.874-.523-2.942v-3.17c0-1.22-.196-2.038-.588-2.452a1.372 1.372 0 0 0-.719-.457 3.928 3.928 0 0 0-.752-.164c-.218-.043-.327-.087-.327-.13 0-.763.055-1.145.164-1.145.196 0 .555-.043 1.078-.13.545-.088 1.134-.186 1.765-.295.632-.13 1.232-.261 1.798-.392a59.914 59.914 0 0 0 1.34-.36c.066-.021.12-.043.164-.065a.616.616 0 0 1 .196-.032c.109 0 .218.076.327.228.109.131.163.24.163.327-.109.959-.196 1.71-.261 2.256-.066.544-.098.882-.098 1.013v3.498c0 1.7.218 2.898.654 3.595.435.676 1.165 1.013 2.19 1.013.74 0 1.296-.163 1.667-.49.37-.349.555-.73.555-1.144v-4.674c0-1.22-.196-2.038-.588-2.452a1.372 1.372 0 0 0-.719-.457 3.928 3.928 0 0 0-.752-.164c-.218-.043-.327-.087-.327-.13 0-.763.055-1.145.164-1.145.196 0 .555-.043 1.078-.13.545-.088 1.133-.186 1.765-.295.632-.13 1.232-.261 1.798-.392a59.914 59.914 0 0 0 1.34-.36l.36-.098c.109 0 .218.077.327.23.109.13.163.239.163.326-.109.959-.196 1.71-.261 2.256a12.83 12.83 0 0 0-.098.98v6.407c0 1.155.109 1.841.327 2.06.108.108.283.195.523.26.239.044.479.066.719.066h.327c.087.022.13.11.13.262 0 .632-.065.948-.196.948-1.351.13-2.484.261-3.399.392-.894.13-1.591.25-2.092.36l-.458.097Zm-20.847.066c-1.416 0-2.713-.327-3.889-.98a7.994 7.994 0 0 1-2.779-2.681c-.675-1.133-1.013-2.386-1.013-3.76 0-1.394.338-2.647 1.013-3.758a7.717 7.717 0 0 1 2.779-2.648c1.176-.676 2.473-1.013 3.889-1.013 1.439 0 2.735.337 3.89 1.013a7.452 7.452 0 0 1 2.746 2.648c.697 1.111 1.046 2.364 1.046 3.759 0 1.373-.338 2.626-1.013 3.759-.676 1.111-1.602 2.005-2.779 2.68-1.155.654-2.451.98-3.89.98Zm.327-1.798c.61 0 1.112-.207 1.504-.621.392-.414.675-.959.85-1.634a8.18 8.18 0 0 0 .294-2.223c0-4.511-1.144-6.766-3.432-6.766-.61 0-1.112.217-1.504.653-.37.436-.643 1.003-.817 1.7a9.296 9.296 0 0 0-.261 2.255c0 4.424 1.122 6.636 3.366 6.636Zm-16.53 1.896a19.4 19.4 0 0 1-2.844-.229 34.096 34.096 0 0 1-3.367-.62 43.29 43.29 0 0 1-.36-1.799 96.474 96.474 0 0 1-.293-2.092 18.329 18.329 0 0 1-.098-1.536c.065-.218.261-.327.588-.327.675 0 1.024.066 1.046.196.13.654.425 1.34.882 2.06a6.78 6.78 0 0 0 1.668 1.765c.675.48 1.383.719 2.124.719 2.158 0 3.236-1.188 3.236-3.563 0-.632-.25-1.21-.752-1.733a8.345 8.345 0 0 0-1.7-1.405c-.631-.414-1.176-.774-1.634-1.079l-.98-.653a32.49 32.49 0 0 1-2.092-1.537 7.208 7.208 0 0 1-1.602-1.863c-.392-.72-.588-1.59-.588-2.615 0-1.111.337-2.114 1.013-3.007.675-.894 1.547-1.602 2.615-2.125a7.49 7.49 0 0 1 3.334-.784c.458 0 .926.032 1.406.098.5.065.926.13 1.274.196.654.13 1.21.261 1.667.392.48.109.861.185 1.145.229a102.1 102.1 0 0 1 .261 2.942c.065.893.098 1.721.098 2.484-.087.218-.25.327-.49.327-.654 0-.992-.076-1.014-.229a5.724 5.724 0 0 0-.719-2.157 5.509 5.509 0 0 0-1.503-1.733 3.294 3.294 0 0 0-2.092-.719c-.741 0-1.373.229-1.896.687-.501.457-.752 1.187-.752 2.19 0 .893.392 1.678 1.177 2.353.806.676 1.841 1.416 3.105 2.223l1.667 1.046c.61.37 1.188.784 1.733 1.242.544.436.991 1.013 1.34 1.732.348.698.523 1.657.523 2.877 0 1.155-.338 2.19-1.014 3.105-.653.915-1.525 1.634-2.615 2.157-1.067.523-2.233.785-3.497.785Zm-26.441-.196c-.087-.087-.13-.316-.13-.686 0-.349.043-.523.13-.523.174 0 .414-.044.72-.131a8.88 8.88 0 0 0 .914-.36c.305-.13.469-.24.49-.326.153-.61.23-1.439.23-2.485v-4.478c0-1.22-.197-2.037-.589-2.451a1.374 1.374 0 0 0-.72-.458 3.932 3.932 0 0 0-.75-.164c-.219-.043-.328-.087-.328-.13 0-.763.055-1.144.164-1.144.566 0 1.373-.12 2.418-.36 1.047-.261 2.234-.534 3.564-.817l.163-.033c.022-.022.065-.032.13-.032l.066-.033c.109 0 .218.076.327.229.13.13.185.24.163.327l-.13 1.013c0 .109.01.174.032.196.044 0 .12-.054.23-.163 1.198-1.133 2.712-1.7 4.543-1.7 1.263 0 2.288.534 3.072 1.602.806 1.067 1.21 2.69 1.21 4.87v3.236c0 1.438.076 2.43.228 2.975.044.087.208.196.49.326.284.131.578.251.883.36.327.087.556.13.687.13.043 0 .076.088.098.262.022.175.032.36.032.556 0 .196-.021.327-.065.392-.13 0-.381-.022-.752-.065-.37-.022-.806-.044-1.307-.066-.48-.043-.937-.076-1.373-.098a22.106 22.106 0 0 0-1.046-.032c-.349 0-.839.021-1.471.065-.61.044-1.198.076-1.765.098-.567.044-.937.076-1.111.098-.088-.087-.131-.316-.131-.686 0-.349.043-.523.13-.523.175 0 .404-.044.687-.131a7.66 7.66 0 0 0 .85-.36c.283-.13.436-.24.458-.326.152-.61.228-1.439.228-2.485v-2.942c0-1.612-.228-2.756-.686-3.432-.436-.697-1.144-1.046-2.125-1.046-.675 0-1.22.131-1.634.393-.414.24-.621.588-.621 1.046v5.491c0 1.438.076 2.43.229 2.975.043.087.196.196.457.326.262.131.545.251.85.36.305.087.512.13.621.13.044 0 .076.088.098.262.022.175.033.36.033.556 0 .196-.022.327-.066.392a30.214 30.214 0 0 0-1.11-.098 59.334 59.334 0 0 1-1.799-.098 21.1 21.1 0 0 0-1.438-.065c-.261 0-.621.01-1.079.032a33.88 33.88 0 0 0-1.373.098c-.479.022-.904.044-1.274.066-.37.043-.621.065-.752.065Zm-7.671.098a7.079 7.079 0 0 1-3.693-1.014 7.794 7.794 0 0 1-2.68-2.713 7.322 7.322 0 0 1-.981-3.726c0-1.395.294-2.648.882-3.759a6.997 6.997 0 0 1 2.517-2.648c1.068-.653 2.3-.98 3.694-.98 1.373 0 2.538.327 3.497.98.981.632 1.722 1.428 2.223 2.386.523.938.785 1.885.785 2.844 0 .502-.11.828-.327.98-.196.153-.6.23-1.21.23h-7.387c-.13 0-.196.076-.196.229 0 .784.142 1.525.425 2.222a4.24 4.24 0 0 0 1.307 1.7c.589.436 1.297.654 2.125.654.74 0 1.427-.11 2.06-.327.435-.13.773-.25 1.013-.36a4.58 4.58 0 0 0 .653-.36c.218-.152.469-.337.752-.555.196.087.294.294.294.621 0 .283-.043.501-.13.654-.131.349-.48.752-1.047 1.21-.544.457-1.22.86-2.026 1.209a6.206 6.206 0 0 1-2.55.523Zm-2.647-9.218h4.15c.306 0 .459-.207.459-.621 0-.828-.23-1.57-.687-2.223-.436-.654-1.002-.98-1.7-.98-.632 0-1.133.228-1.503.686a4.1 4.1 0 0 0-.752 1.47c-.13.546-.196.992-.196 1.341 0 .218.076.327.229.327ZM37.576 32.001c-.087-.087-.13-.305-.13-.653 0-.371.043-.556.13-.556.174 0 .425-.055.752-.164a5.67 5.67 0 0 0 .915-.326c.283-.131.436-.24.458-.327.152-.61.228-1.439.228-2.485V16.017c0-1.22-.196-2.037-.588-2.451a1.374 1.374 0 0 0-.719-.458 3.932 3.932 0 0 0-.752-.164c-.218-.043-.327-.087-.327-.13 0-.763.055-1.144.164-1.144.675 0 1.449-.076 2.32-.23a40.458 40.458 0 0 0 2.942-.718c.654-.218 1.014-.327 1.08-.327.13 0 .195.142.195.425 0 .065-.01.152-.032.261 0 .088-.011.197-.033.327.937-.74 1.94-1.111 3.007-1.111 1.395 0 2.626.338 3.694 1.013a6.987 6.987 0 0 1 2.55 2.615 6.916 6.916 0 0 1 .947 3.53c0 1.613-.36 2.997-1.078 4.152-.698 1.133-1.667 2.005-2.91 2.615-1.22.61-2.614.915-4.184.915-.523 0-.958-.055-1.307-.163-.349-.088-.545-.131-.588-.131-.088 0-.131.174-.131.523V27c0 1.438.076 2.43.229 2.975.043.087.207.196.49.326.283.131.577.24.883.327.326.11.555.164.686.164.044 0 .076.087.098.261.022.175.033.36.033.556 0 .196-.022.327-.066.392-.13 0-.381-.022-.751-.065-.37-.022-.807-.055-1.308-.098-.48-.022-.937-.044-1.373-.066a21.99 21.99 0 0 0-1.046-.032c-.261 0-.62.01-1.079.032-.435.022-.893.044-1.372.066-.48.043-.905.076-1.275.098a7.92 7.92 0 0 1-.752.065Zm9.152-8.63c1.962 0 2.942-1.612 2.942-4.837 0-4.227-.991-6.341-2.974-6.341-.763 0-1.373.229-1.83.686-.458.458-.687 1.035-.687 1.733v6.178c0 .828.272 1.47.817 1.928.545.436 1.122.654 1.732.654Zm-28.627-1.403c-2.07-2.18-3.105-4.784-3.105-7.813 0-1.525.272-2.952.817-4.282a11 11 0 0 1 2.256-3.53 10.667 10.667 0 0 1 3.367-2.386 9.486 9.486 0 0 1 4.053-.883c1.438 0 2.789.294 4.053.883a10.199 10.199 0 0 1 3.367 2.386 11 11 0 0 1 2.255 3.53c.567 1.33.85 2.757.85 4.282 0 3.03-1.035 5.633-3.105 7.813-1.417 1.481-3.008 2.462-4.773 2.941a9.513 9.513 0 0 1-5.295 0c-1.743-.48-3.323-1.46-4.74-2.941Zm7.91 1.405c1.09 0 1.995-.381 2.714-1.144.74-.763 1.285-1.787 1.634-3.073.37-1.307.556-2.767.556-4.38a19.37 19.37 0 0 0-.294-3.432 13.973 13.973 0 0 0-.883-3.138c-.414-1.024-1.024-1.83-1.83-2.419-.807-.588-1.776-.882-2.91-.882-1.155 0-2.113.414-2.876 1.242-.763.85-1.297 1.885-1.602 3.105-.283 1.22-.425 2.615-.425 4.184a16.8 16.8 0 0 0 1.275 6.44c.436 1.046 1.046 1.895 1.83 2.55.807.631 1.744.947 2.812.947ZM13.01 25.366l-.164-.065L.588 19.09C.196 18.85 0 18.414 0 17.782c0-.327.196-.589.588-.785l12.193-6.112.163-.066c.153 0 .338.621.556 1.864l-.098.294-10.395 5.066 10.428 5.165c.065.022.098.087.098.196 0 .109-.033.327-.098.654a7.4 7.4 0 0 1-.23.882c-.065.284-.13.425-.196.425Z"/></g><defs><clipPath id="a"><path fill="#fff" d="M0 0h356v32H0z"/></clipPath></defs></svg>