<svg xmlns="http://www.w3.org/2000/svg" width="3000" height="381" fill="none"><mask id="b" width="3444" height="345" x="-66" y="18" fill="#000" maskUnits="userSpaceOnUse"><path fill="#fff" d="M-66 18h3444v345H-66z"/><path d="M30.125 354.134v-95.205H83.91c84.713 0 137.602-45.772 137.602-116.261 0-70.488-52.441-116.26-136.705-116.26H-64v327.726h94.125Zm0-258.153H74.05c31.823 0 52.889 18.309 52.889 46.687 0 28.379-21.066 46.688-52.89 46.688H30.126V95.981ZM414.621 361c107.123 0 179.734-66.369 179.734-170.729C594.355 85.911 521.744 20 414.621 20 307.05 20 234.44 85.911 234.44 190.271 234.44 294.631 307.05 361 414.621 361Zm0-79.185c-50.648 0-85.608-36.16-85.608-91.544 0-54.926 34.96-91.543 85.608-91.543 50.649 0 85.161 36.617 85.161 91.543 0 55.384-34.512 91.544-85.161 91.544Zm395.829 72.319 44.821-198.649h4.482l44.821 198.649h131.776l86.5-327.726h-94.57L968.669 266.71h-4.482L904.574 26.408H810.45L751.286 266.71h-4.483l-60.06-240.302H592.17l86.505 327.726H810.45Zm588.81 0v-75.981h-160.01v-58.13h119v-62.708h-119v-54.926h155.53v-75.98h-246.97v327.725h251.45Zm124.36 0V246.113h22.86l79.78 108.021h105.33l-94.57-115.345 3.58-.915c46.62-8.697 80.68-46.23 80.68-99.783 0-66.827-51.99-111.683-130.43-111.683h-161.8v327.726h94.57Zm0-258.153h50.65c30.03 0 52.44 16.478 52.44 43.483 0 27.464-22.41 43.941-52.44 43.941h-50.65V95.981Zm323.69 258.153V222.769h109.82v131.365h94.57V26.408h-94.57v120.838h-109.82V26.408h-94.57v327.726h94.57ZM2261.57 361c107.13 0 179.74-66.369 179.74-170.729C2441.31 85.911 2368.7 20 2261.57 20c-107.57 0-180.18 65.911-180.18 170.271C2081.39 294.631 2154 361 2261.57 361Zm0-79.185c-50.64 0-85.6-36.16-85.6-91.544 0-54.926 34.96-91.543 85.6-91.543 50.65 0 85.17 36.617 85.17 91.543 0 55.384-34.52 91.544-85.17 91.544ZM2619.83 361c89.65 0 150.6-54.926 150.6-141.435V26.408h-94.57v189.953c0 39.364-22.41 65.454-56.03 65.454-34.06 0-56.02-25.632-56.02-65.454V26.408l-94.58 56.833v136.324c0 86.509 60.96 141.435 150.6 141.435Zm325.57 0c89.64 0 148.36-42.11 148.36-107.106 0-79.185-73.96-91.086-128.64-99.325-37.2-5.492-69.02-9.612-69.02-34.329 0-18.308 17.93-31.125 47.96-31.125 32.27 0 53.33 16.478 53.33 45.315H3083C3083 66.687 3026.08 20 2940.92 20c-84.71 0-139.4 42.11-139.4 107.106 0 84.22 83.37 91.086 138.5 98.867 32.72 4.577 59.17 10.07 59.17 33.871 0 20.14-19.73 31.583-50.2 31.583-38.55 0-60.51-17.851-60.96-45.314h-88.75c0 67.742 58.27 114.887 146.12 114.887Zm430.6-6.866v-75.981h-160.01v-58.13h119v-62.708h-119v-54.926h155.53v-75.98h-246.97v327.725H3376Z"/></mask><path stroke="url(#a)" stroke-width="4" d="M30.125 354.134v-95.205H83.91c84.713 0 137.602-45.772 137.602-116.261 0-70.488-52.441-116.26-136.705-116.26H-64v327.726h94.125Zm0-258.153H74.05c31.823 0 52.889 18.309 52.889 46.687 0 28.379-21.066 46.688-52.89 46.688H30.126V95.981Z" mask="url(#b)"/><path stroke="url(#c)" stroke-width="4" d="M414.621 361c107.123 0 179.734-66.369 179.734-170.729C594.355 85.911 521.744 20 414.621 20 307.05 20 234.44 85.911 234.44 190.271 234.44 294.631 307.05 361 414.621 361Zm0-79.185c-50.648 0-85.608-36.16-85.608-91.544 0-54.926 34.96-91.543 85.608-91.543 50.649 0 85.161 36.617 85.161 91.543 0 55.384-34.512 91.544-85.161 91.544Z" mask="url(#b)"/><path stroke="url(#d)" stroke-width="4" d="m810.45 354.134 44.821-198.649h4.482l44.821 198.649h131.776l86.5-327.726h-94.57L968.669 266.71h-4.482L904.574 26.408H810.45L751.286 266.71h-4.483l-60.06-240.302H592.17l86.505 327.726H810.45Z" mask="url(#b)"/><path stroke="url(#e)" stroke-width="4" d="M1399.26 354.134v-75.981h-160.01v-58.13h119v-62.708h-119v-54.926h155.53v-75.98h-246.97v327.725h251.45Z" mask="url(#b)"/><path stroke="url(#f)" stroke-width="4" d="M1523.62 354.134V246.113h22.86l79.78 108.021h105.33l-94.57-115.345 3.58-.915c46.62-8.697 80.68-46.23 80.68-99.783 0-66.827-51.99-111.683-130.43-111.683h-161.8v327.726h94.57Zm0-258.153h50.65c30.03 0 52.44 16.478 52.44 43.483 0 27.464-22.41 43.941-52.44 43.941h-50.65V95.981Z" mask="url(#b)"/><path stroke="url(#g)" stroke-width="4" d="M1847.31 354.134V222.769h109.82v131.365h94.57V26.408h-94.57v120.838h-109.82V26.408h-94.57v327.726h94.57Z" mask="url(#b)"/><path stroke="url(#h)" stroke-width="4" d="M2261.57 361c107.13 0 179.74-66.369 179.74-170.729C2441.31 85.911 2368.7 20 2261.57 20c-107.57 0-180.18 65.911-180.18 170.271C2081.39 294.631 2154 361 2261.57 361Zm0-79.185c-50.64 0-85.6-36.16-85.6-91.544 0-54.926 34.96-91.543 85.6-91.543 50.65 0 85.17 36.617 85.17 91.543 0 55.384-34.52 91.544-85.17 91.544Z" mask="url(#b)"/><path stroke="url(#i)" stroke-width="4" d="M2619.83 361c89.65 0 150.6-54.926 150.6-141.435V26.408h-94.57v189.953c0 39.364-22.41 65.454-56.03 65.454-34.06 0-56.02-25.632-56.02-65.454V26.408l-94.58 56.833v136.324c0 86.509 60.96 141.435 150.6 141.435Z" mask="url(#b)"/><path stroke="url(#j)" stroke-width="4" d="M2945.4 361c89.64 0 148.36-42.11 148.36-107.106 0-79.185-73.96-91.086-128.64-99.325-37.2-5.492-69.02-9.612-69.02-34.329 0-18.308 17.93-31.125 47.96-31.125 32.27 0 53.33 16.478 53.33 45.315H3083C3083 66.687 3026.08 20 2940.92 20c-84.71 0-139.4 42.11-139.4 107.106 0 84.22 83.37 91.086 138.5 98.867 32.72 4.577 59.17 10.07 59.17 33.871 0 20.14-19.73 31.583-50.2 31.583-38.55 0-60.51-17.851-60.96-45.314h-88.75c0 67.742 58.27 114.887 146.12 114.887Z" mask="url(#b)"/><path stroke="url(#k)" stroke-width="4" d="M3376 354.134v-75.981h-160.01v-58.13h119v-62.708h-119v-54.926h155.53v-75.98h-246.97v327.725H3376Z" mask="url(#b)"/><g filter="url(#l)"><path stroke="url(#m)" stroke-width="2" d="m590.571 26.114 34.336 128.41 26.77 103.431 25.754 96.933"/></g><path stroke="url(#n)" stroke-width="2" d="m590.571 26.114 34.336 128.41 26.77 103.431 25.754 96.933"/><g filter="url(#o)"><path stroke="url(#p)" stroke-width="2" d="m897.365-.129 33.27 128.691 25.912 103.649 24.949 97.143"/></g><path stroke="url(#q)" stroke-width="2" d="m897.365-.129 33.27 128.691 25.912 103.649 24.949 97.143"/><g filter="url(#r)"><path stroke="url(#s)" stroke-width="2" d="m1750.49 31.99 1.63 132.912.46 106.838 1.07 100.29"/></g><path stroke="url(#t)" stroke-width="2" d="m1750.49 31.99 1.63 132.912.46 106.838 1.07 100.29"/><g opacity=".48"><g filter="url(#u)"><path stroke="url(#v)" stroke-width="2" d="m2771.12 12 .83 96.17.06 77.305.51 72.565"/></g><path stroke="url(#w)" stroke-width="2" d="m2771.12 12 .83 96.17.06 77.305.51 72.565"/></g><g filter="url(#x)"><path stroke="url(#y)" stroke-width="2" d="M74 96c31.823 0 52.889 18.309 52.889 46.687 0 28.379-21.066 46.688-52.889 46.688"/></g><path stroke="url(#z)" stroke-width="2" d="M74 96c31.823 0 52.889 18.309 52.889 46.687 0 28.379-21.066 46.688-52.889 46.688"/><defs><linearGradient id="a" x1="2641.5" x2="580" y1="1005" y2="-2024.5" gradientUnits="userSpaceOnUse"><stop offset=".096" stop-color="#7F7F7F" stop-opacity="0"/><stop offset="1" stop-color="#E5E5E5"/></linearGradient><linearGradient id="c" x1="2641.5" x2="580" y1="1005" y2="-2024.5" gradientUnits="userSpaceOnUse"><stop offset=".096" stop-color="#7F7F7F" stop-opacity="0"/><stop offset="1" stop-color="#E5E5E5"/></linearGradient><linearGradient id="d" x1="2641.5" x2="580" y1="1005" y2="-2024.5" gradientUnits="userSpaceOnUse"><stop offset=".096" stop-color="#7F7F7F" stop-opacity="0"/><stop offset="1" stop-color="#E5E5E5"/></linearGradient><linearGradient id="e" x1="2641.5" x2="580" y1="1005" y2="-2024.5" gradientUnits="userSpaceOnUse"><stop offset=".096" stop-color="#7F7F7F" stop-opacity="0"/><stop offset="1" stop-color="#E5E5E5"/></linearGradient><linearGradient id="f" x1="2641.5" x2="580" y1="1005" y2="-2024.5" gradientUnits="userSpaceOnUse"><stop offset=".096" stop-color="#7F7F7F" stop-opacity="0"/><stop offset="1" stop-color="#E5E5E5"/></linearGradient><linearGradient id="g" x1="2641.5" x2="580" y1="1005" y2="-2024.5" gradientUnits="userSpaceOnUse"><stop offset=".096" stop-color="#7F7F7F" stop-opacity="0"/><stop offset="1" stop-color="#E5E5E5"/></linearGradient><linearGradient id="h" x1="2641.5" x2="580" y1="1005" y2="-2024.5" gradientUnits="userSpaceOnUse"><stop offset=".096" stop-color="#7F7F7F" stop-opacity="0"/><stop offset="1" stop-color="#E5E5E5"/></linearGradient><linearGradient id="i" x1="2641.5" x2="580" y1="1005" y2="-2024.5" gradientUnits="userSpaceOnUse"><stop offset=".096" stop-color="#7F7F7F" stop-opacity="0"/><stop offset="1" stop-color="#E5E5E5"/></linearGradient><linearGradient id="j" x1="2641.5" x2="580" y1="1005" y2="-2024.5" gradientUnits="userSpaceOnUse"><stop offset=".096" stop-color="#7F7F7F" stop-opacity="0"/><stop offset="1" stop-color="#E5E5E5"/></linearGradient><linearGradient id="k" x1="2641.5" x2="580" y1="1005" y2="-2024.5" gradientUnits="userSpaceOnUse"><stop offset=".096" stop-color="#7F7F7F" stop-opacity="0"/><stop offset="1" stop-color="#E5E5E5"/></linearGradient><linearGradient id="m" x1="597.629" x2="669.77" y1="48.595" y2="332.433" gradientUnits="userSpaceOnUse"><stop stop-color="#fff" stop-opacity="0"/><stop offset=".413" stop-color="#7A3AFF"/><stop offset=".477" stop-color="#0084FF"/><stop offset="1" stop-color="#1C3044" stop-opacity="0"/></linearGradient><linearGradient id="n" x1="604.701" x2="665.205" y1="76.077" y2="299.441" gradientUnits="userSpaceOnUse"><stop stop-color="#fff" stop-opacity="0"/><stop offset=".413" stop-color="#7A3AFF"/><stop offset=".477" stop-color="#0084FF"/><stop offset="1" stop-color="#1C3044" stop-opacity="0"/></linearGradient><linearGradient id="p" x1="904.237" x2="974.021" y1="22.41" y2="306.837" gradientUnits="userSpaceOnUse"><stop stop-color="#fff" stop-opacity="0"/><stop offset=".413" stop-color="#7A3AFF"/><stop offset=".477" stop-color="#0084FF"/><stop offset="1" stop-color="#1C3044" stop-opacity="0"/></linearGradient><linearGradient id="q" x1="911.081" x2="969.73" y1="49.95" y2="273.808" gradientUnits="userSpaceOnUse"><stop stop-color="#fff" stop-opacity="0"/><stop offset=".413" stop-color="#7A3AFF"/><stop offset=".477" stop-color="#0084FF"/><stop offset="1" stop-color="#1C3044" stop-opacity="0"/></linearGradient><linearGradient id="s" x1="1751.79" x2="1751.76" y1="55.518" y2="348.38" gradientUnits="userSpaceOnUse"><stop stop-color="#fff" stop-opacity="0"/><stop offset=".413" stop-color="#7A3AFF"/><stop offset=".477" stop-color="#0084FF"/><stop offset="1" stop-color="#1C3044" stop-opacity="0"/></linearGradient><linearGradient id="t" x1="1751.87" x2="1755.46" y1="83.895" y2="315.28" gradientUnits="userSpaceOnUse"><stop stop-color="#fff" stop-opacity="0"/><stop offset=".413" stop-color="#7A3AFF"/><stop offset=".477" stop-color="#0084FF"/><stop offset="1" stop-color="#1C3044" stop-opacity="0"/></linearGradient><linearGradient id="v" x1="2771.99" x2="2772.7" y1="29.022" y2="240.928" gradientUnits="userSpaceOnUse"><stop stop-color="#fff" stop-opacity="0"/><stop offset=".413" stop-color="#7A3AFF"/><stop offset=".477" stop-color="#0084FF"/><stop offset="1" stop-color="#1C3044" stop-opacity="0"/></linearGradient><linearGradient id="w" x1="2771.97" x2="2775.19" y1="49.555" y2="216.949" gradientUnits="userSpaceOnUse"><stop stop-color="#fff" stop-opacity="0"/><stop offset=".413" stop-color="#7A3AFF"/><stop offset=".477" stop-color="#0084FF"/><stop offset="1" stop-color="#1C3044" stop-opacity="0"/></linearGradient><linearGradient id="y" x1="121.449" x2="107.449" y1="181.02" y2="99.019" gradientUnits="userSpaceOnUse"><stop stop-color="#7F7F7F" stop-opacity="0"/><stop offset=".462" stop-color="#7A3AFF"/><stop offset=".534" stop-color="#0084FF"/><stop offset="1" stop-color="#E5E5E5" stop-opacity="0"/></linearGradient><linearGradient id="z" x1="121.449" x2="107.449" y1="181.02" y2="99.019" gradientUnits="userSpaceOnUse"><stop stop-color="#7F7F7F" stop-opacity="0"/><stop offset=".462" stop-color="#7A3AFF"/><stop offset=".534" stop-color="#0084FF"/><stop offset="1" stop-color="#E5E5E5" stop-opacity="0"/></linearGradient><filter id="l" width="105.393" height="345.889" x="581.305" y="17.555" color-interpolation-filters="sRGB" filterUnits="userSpaceOnUse"><feFlood flood-opacity="0" result="BackgroundImageFix"/><feBlend in="SourceGraphic" in2="BackgroundImageFix" result="shape"/><feGaussianBlur result="effect1_foregroundBlur_1817_23319" stdDeviation="4.15"/></filter><filter id="o" width="102.668" height="346.582" x="888.096" y="-8.679" color-interpolation-filters="sRGB" filterUnits="userSpaceOnUse"><feFlood flood-opacity="0" result="BackgroundImageFix"/><feBlend in="SourceGraphic" in2="BackgroundImageFix" result="shape"/><feGaussianBlur result="effect1_foregroundBlur_1817_23319" stdDeviation="4.15"/></filter><filter id="r" width="21.754" height="356.663" x="1741.19" y="23.678" color-interpolation-filters="sRGB" filterUnits="userSpaceOnUse"><feFlood flood-opacity="0" result="BackgroundImageFix"/><feBlend in="SourceGraphic" in2="BackgroundImageFix" result="shape"/><feGaussianBlur result="effect1_foregroundBlur_1817_23319" stdDeviation="4.15"/></filter><filter id="u" width="20.002" height="262.655" x="2761.82" y="3.692" color-interpolation-filters="sRGB" filterUnits="userSpaceOnUse"><feFlood flood-opacity="0" result="BackgroundImageFix"/><feBlend in="SourceGraphic" in2="BackgroundImageFix" result="shape"/><feGaussianBlur result="effect1_foregroundBlur_1817_23319" stdDeviation="4.15"/></filter><filter id="x" width="61.889" height="103.375" x="70" y="91" color-interpolation-filters="sRGB" filterUnits="userSpaceOnUse"><feFlood flood-opacity="0" result="BackgroundImageFix"/><feBlend in="SourceGraphic" in2="BackgroundImageFix" result="shape"/><feGaussianBlur result="effect1_foregroundBlur_1817_23319" stdDeviation="2"/></filter></defs></svg>