<svg xmlns="http://www.w3.org/2000/svg" width="312" height="91" fill="none"><path fill="#fff" d="M242.304 21.423v48.154h48.154V21.423h-48.154ZM295.83 91h-58.898c-4.434 0-8.207-1.577-11.319-4.732-3.155-3.112-4.732-6.886-4.732-11.32V16.052c0-4.433 1.577-8.228 4.732-11.383C228.725 1.556 232.498 0 236.932 0h58.898c4.433 0 8.228 1.556 11.383 4.668 3.112 3.155 4.668 6.95 4.668 11.383V74.95c0 4.433-1.556 8.207-4.668 11.319-3.155 3.155-6.95 4.732-11.383 4.732ZM184.044 0h21.423v91h-24.172l-50.776-59.409v38.246h-21.423V0h24.173l50.775 59.345V0ZM93.686 48.09v26.859c0 4.433-1.556 8.207-4.668 11.319C85.863 89.423 82.068 91 77.635 91H16.05c-4.433 0-8.207-1.577-11.319-4.732C1.577 83.156 0 79.382 0 74.948v-5.371h72.263V56.212l-60.624-.064-1.151-.256c-3.07-.682-5.585-2.238-7.546-4.669C.98 48.794 0 45.98 0 42.784V16.05c0-4.433 1.577-8.228 4.732-11.383C7.844 1.556 11.617 0 16.052 0h61.583c4.433 0 8.228 1.556 11.383 4.668 3.112 3.155 4.668 6.95 4.668 11.383v5.372H21.423v13.302l60.624.063 1.151.256c3.112.682 5.628 2.239 7.546 4.669 1.961 2.43 2.942 5.222 2.942 8.377Z"/></svg>