<svg width="822" height="822" viewBox="0 0 822 822" fill="none" xmlns="http://www.w3.org/2000/svg">
<rect width="822" height="822" fill="#1B1A1D"/>
<path d="M187.889 376.359C188.465 376.359 188.932 375.892 188.932 375.316L188.932 361C175.582 361.554 163.583 367.335 154.928 376.36L187.889 376.359ZM174.335 397C174.335 397.576 173.868 398.042 173.292 398.042L142.694 398.043C144.411 391.625 147.372 385.713 151.299 380.585L173.292 380.584C173.868 380.584 174.335 381.051 174.335 381.627L174.335 397ZM227.166 445.64C218.514 454.661 206.515 460.443 193.162 461L193.162 446.684C193.162 446.108 193.629 445.641 194.205 445.641L227.166 445.64ZM188.933 460.997C175.583 460.444 163.581 454.659 154.929 445.639L187.891 445.638C188.467 445.638 188.933 446.105 188.933 446.681L188.933 460.997ZM175.888 424.994C175.888 424.418 176.355 423.951 176.931 423.951L239.4 423.95C237.683 430.369 234.725 436.277 230.795 441.408L176.931 441.41C176.355 441.41 175.888 440.943 175.888 440.367L175.888 424.994ZM216.446 403.31C216.446 402.734 216.913 402.267 217.489 402.267L240.34 402.266C240.839 405.1 241.101 408.018 241.101 410.995C241.101 413.973 240.839 416.891 240.339 419.725L217.491 419.722C216.915 419.722 216.449 419.255 216.449 418.68L216.446 403.31ZM172.319 440.37C172.319 440.946 171.852 441.413 171.277 441.413L151.301 441.413C147.371 436.283 144.413 430.374 142.697 423.956L171.277 423.955C171.853 423.955 172.32 424.422 172.32 424.998L172.319 440.37ZM141.761 402.269L211.091 402.267C211.667 402.267 212.134 402.734 212.134 403.31L212.134 418.683C212.134 419.258 211.667 419.725 211.091 419.725L141.761 419.727C141.261 416.893 141 413.976 141 410.998C141 408.02 141.262 405.103 141.761 402.269ZM178.567 381.627C178.567 381.051 179.034 380.584 179.61 380.584L230.796 380.583C234.726 385.714 237.684 391.623 239.401 398.041L179.609 398.042C179.033 398.042 178.567 397.575 178.567 397L178.567 381.627ZM193.164 361C206.514 361.553 218.516 367.337 227.168 376.358L194.206 376.359C193.631 376.359 193.164 375.892 193.164 375.316L193.164 361Z" fill="#F2F2F2"/>
<path d="M274.457 411.42C274.457 404.473 275.957 398.294 278.956 392.883C281.955 387.406 286.12 383.164 291.451 380.159C296.849 377.086 302.946 375.55 309.744 375.55C318.074 375.55 325.204 377.754 331.136 382.162C337.067 386.571 341.032 392.583 343.031 400.198H324.238C322.839 397.259 320.84 395.021 318.241 393.485C315.708 391.948 312.809 391.18 309.544 391.18C304.279 391.18 300.014 393.017 296.749 396.691C293.483 400.365 291.851 405.274 291.851 411.42C291.851 417.565 293.483 422.475 296.749 426.148C300.014 429.822 304.279 431.659 309.544 431.659C312.809 431.659 315.708 430.891 318.241 429.355C320.84 427.818 322.839 425.581 324.238 422.642H343.031C341.032 430.256 337.067 436.268 331.136 440.677C325.204 445.019 318.074 447.189 309.744 447.189C302.946 447.189 296.849 445.687 291.451 442.681C286.12 439.608 281.955 435.366 278.956 429.956C275.957 424.545 274.457 418.366 274.457 411.42Z" fill="#F2F2F2"/>
<path d="M374.89 447.49C369.426 447.49 364.494 446.321 360.096 443.983C355.765 441.645 352.333 438.305 349.8 433.964C347.334 429.622 346.102 424.545 346.102 418.734C346.102 412.989 347.368 407.946 349.9 403.604C352.432 399.196 355.898 395.822 360.296 393.485C364.694 391.147 369.626 389.978 375.09 389.978C380.555 389.978 385.486 391.147 389.885 393.485C394.283 395.822 397.748 399.196 400.281 403.604C402.813 407.946 404.079 412.989 404.079 418.734C404.079 424.478 402.78 429.555 400.181 433.964C397.648 438.305 394.15 441.645 389.685 443.983C385.286 446.321 380.355 447.49 374.89 447.49ZM374.89 432.661C378.156 432.661 380.921 431.459 383.187 429.054C385.52 426.649 386.686 423.209 386.686 418.734C386.686 414.258 385.553 410.818 383.287 408.414C381.088 406.009 378.356 404.807 375.09 404.807C371.758 404.807 368.993 406.009 366.794 408.414C364.594 410.752 363.495 414.192 363.495 418.734C363.495 423.209 364.561 426.649 366.694 429.054C368.893 431.459 371.625 432.661 374.89 432.661Z" fill="#F2F2F2"/>
<path d="M443.136 390.178C449.667 390.178 454.865 392.316 458.73 396.591C462.662 400.799 464.628 406.61 464.628 414.025V446.688H447.634V416.329C447.634 412.589 446.668 409.683 444.735 407.612C442.803 405.541 440.204 404.506 436.938 404.506C433.673 404.506 431.074 405.541 429.141 407.612C427.209 409.683 426.242 412.589 426.242 416.329V446.688H409.149V390.779H426.242V398.194C427.975 395.722 430.308 393.785 433.24 392.382C436.172 390.913 439.471 390.178 443.136 390.178Z" fill="#F2F2F2"/>
<path d="M506.494 390.178C513.025 390.178 518.223 392.316 522.088 396.591C526.02 400.799 527.986 406.61 527.986 414.025V446.688H510.993V416.329C510.993 412.589 510.026 409.683 508.094 407.612C506.161 405.541 503.562 404.506 500.297 404.506C497.031 404.506 494.432 405.541 492.5 407.612C490.567 409.683 489.601 412.589 489.601 416.329V446.688H472.507V390.779H489.601V398.194C491.333 395.722 493.666 393.785 496.598 392.382C499.53 390.913 502.829 390.178 506.494 390.178Z" fill="#F2F2F2"/>
<path d="M588.445 417.832C588.445 419.435 588.345 421.105 588.145 422.842H549.46C549.727 426.315 550.827 428.987 552.759 430.858C554.758 432.661 557.191 433.563 560.056 433.563C564.321 433.563 567.287 431.759 568.953 428.152H587.146C586.213 431.826 584.514 435.133 582.048 438.072C579.649 441.011 576.617 443.315 572.951 444.985C569.286 446.655 565.188 447.49 560.656 447.49C555.192 447.49 550.327 446.321 546.062 443.983C541.797 441.645 538.465 438.305 536.066 433.964C533.667 429.622 532.467 424.545 532.467 418.734C532.467 412.923 533.633 407.846 535.966 403.504C538.365 399.162 541.697 395.822 545.962 393.485C550.227 391.147 555.125 389.978 560.656 389.978C566.054 389.978 570.852 391.113 575.051 393.384C579.249 395.655 582.514 398.895 584.847 403.103C587.246 407.312 588.445 412.221 588.445 417.832ZM570.952 413.323C570.952 410.384 569.952 408.046 567.953 406.31C565.954 404.573 563.455 403.705 560.456 403.705C557.591 403.705 555.158 404.539 553.159 406.209C551.226 407.879 550.027 410.251 549.56 413.323H570.952Z" fill="#F2F2F2"/>
<path d="M590.066 418.734C590.066 412.923 591.232 407.846 593.564 403.504C595.964 399.162 599.262 395.822 603.461 393.485C607.726 391.147 612.59 389.978 618.055 389.978C625.052 389.978 630.883 391.815 635.548 395.488C640.28 399.162 643.378 404.339 644.845 411.019H626.652C625.119 406.744 622.153 404.606 617.755 404.606C614.623 404.606 612.124 405.842 610.258 408.314C608.392 410.718 607.459 414.192 607.459 418.734C607.459 423.276 608.392 426.783 610.258 429.254C612.124 431.659 614.623 432.861 617.755 432.861C622.153 432.861 625.119 430.724 626.652 426.449H644.845C643.378 432.995 640.28 438.138 635.548 441.879C630.817 445.62 624.986 447.49 618.055 447.49C612.59 447.49 607.726 446.321 603.461 443.983C599.262 441.645 595.964 438.305 593.564 433.964C591.232 429.622 590.066 424.545 590.066 418.734Z" fill="#F2F2F2"/>
<path d="M681.077 432.16V446.688H672.381C666.183 446.688 661.352 445.186 657.886 442.18C654.421 439.107 652.688 434.131 652.688 427.251V405.007H645.891V390.779H652.688V377.153H669.782V390.779H680.978V405.007H669.782V427.451C669.782 429.121 670.182 430.323 670.981 431.058C671.781 431.793 673.114 432.16 674.98 432.16H681.077Z" fill="#F2F2F2"/>
</svg>
