<svg width="62" height="62" viewBox="0 0 62 62" fill="none" xmlns="http://www.w3.org/2000/svg">
<path d="M61.3883 34.4434L57.4353 26.9732C51.7427 29.9867 47.1179 31.8189 43.6104 32.4485C47.6977 29.6543 51.4103 24.8439 54.7905 17.9751L47.2098 14.2329C44.9045 18.9088 42.7476 21.9082 40.7959 23.8182C41.9061 18.6895 40.4918 11.4599 34.4244 0L26.9568 3.95438C29.9693 9.64896 31.8008 14.2754 32.4302 17.777C29.6369 13.6882 24.8283 9.98144 17.9689 6.59299L14.228 14.1763C18.9023 16.4825 21.9006 18.64 23.81 20.5925C18.6831 19.4818 11.4559 20.8966 0 26.9591L3.95301 34.4292C9.63855 31.4157 14.2563 29.5906 17.7638 28.9539C13.6693 31.7835 9.96384 36.5868 6.59777 43.4203L14.1785 47.1624C16.4697 42.5077 18.6336 39.5013 20.5924 37.5772C19.4822 42.7058 20.8965 49.9355 26.9639 61.3954L34.4315 57.441C31.419 51.7535 29.5945 47.1341 28.9581 43.6254C31.7867 47.7213 36.5883 51.4281 43.4194 54.7953L47.1603 47.212C42.5072 44.92 39.5018 42.7624 37.5783 40.8029C38.6178 41.0293 39.7351 41.1495 40.9656 41.1495C45.8025 41.1495 52.2589 39.2678 61.3954 34.4292L61.3883 34.4434Z" fill="#F43E81"/>
</svg>
