<svg width="822" height="822" viewBox="0 0 822 822" fill="none" xmlns="http://www.w3.org/2000/svg">
<rect width="822" height="822" fill="#1B1A1D"/>
<path d="M294.989 412.101L288.55 399.934C279.278 404.842 271.745 407.826 266.032 408.852C272.69 404.3 278.736 396.465 284.242 385.277L271.895 379.182C268.14 386.799 264.627 391.684 261.448 394.795C263.256 386.441 260.952 374.666 251.07 356L238.907 362.441C243.814 371.716 246.797 379.251 247.822 384.955C243.272 378.295 235.44 372.258 224.268 366.739L218.174 379.09C225.788 382.846 230.671 386.361 233.781 389.541C225.431 387.732 213.659 390.036 195 399.911L201.439 412.078C210.699 407.17 218.22 404.197 223.933 403.16C217.264 407.769 211.229 415.592 205.746 426.722L218.094 432.818C221.826 425.236 225.35 420.339 228.541 417.205C226.732 425.559 229.036 437.334 238.919 456L251.081 449.559C246.175 440.295 243.203 432.771 242.166 427.057C246.774 433.728 254.595 439.765 265.721 445.25L271.814 432.898C264.235 429.165 259.34 425.651 256.207 422.459C257.9 422.828 259.72 423.024 261.724 423.024C269.603 423.024 280.119 419.959 295 412.078L294.989 412.101Z" fill="white"/>
<path d="M571.803 443.707V388.386H588.901V398.774H589.249C590.74 395.096 592.994 392.296 596.009 390.374C599.026 388.419 602.653 387.441 606.894 387.441C613.057 387.441 617.88 389.28 621.359 392.958C624.871 396.637 626.628 401.74 626.628 408.267V443.707H608.982V412.045C608.982 408.831 608.136 406.329 606.446 404.54C604.79 402.717 602.455 401.806 599.438 401.806C596.457 401.806 594.038 402.8 592.182 404.788C590.326 406.776 589.399 409.344 589.399 412.492V443.707H571.803Z" fill="white"/>
<path d="M561.262 437.295C556.257 442.365 549.366 444.9 540.585 444.9C531.803 444.9 524.912 442.365 519.907 437.295C514.903 432.192 512.403 425.101 512.403 416.021C512.403 407.108 514.937 400.083 520.007 394.947C525.076 389.777 531.937 387.193 540.585 387.193C549.266 387.193 556.126 389.761 561.162 394.897C566.232 400 568.768 407.041 568.768 416.021C568.768 425.134 566.266 432.225 561.262 437.295ZM532.98 427.801C534.803 430.551 537.337 431.927 540.585 431.927C543.832 431.927 546.368 430.551 548.189 427.801C550.012 425.018 550.924 421.091 550.924 416.021C550.924 411.084 549.995 407.207 548.139 404.39C546.285 401.574 543.766 400.166 540.585 400.166C537.37 400.166 534.835 401.574 532.98 404.39C531.157 407.174 530.247 411.051 530.247 416.021C530.247 421.091 531.157 425.018 532.98 427.801Z" fill="white"/>
<path d="M491.573 443.706V390.469H509.219V443.706H491.573Z" fill="white"/>
<path d="M491.573 385.373V371.719H509.219V385.373H491.573Z" fill="white"/>
<path d="M438.484 405.136C438.484 399.635 440.688 395.278 445.094 392.064C449.536 388.816 455.517 387.193 463.038 387.193C470.494 387.193 476.409 388.85 480.782 392.163C485.157 395.477 487.378 399.967 487.442 405.633H471.338C471.274 403.645 470.461 402.071 468.903 400.911C467.38 399.718 465.359 399.122 462.84 399.122C460.619 399.122 458.83 399.569 457.472 400.464C456.113 401.358 455.434 402.535 455.434 403.993C455.434 406.213 457.555 407.77 461.797 408.665L473.228 411.051C478.761 412.211 482.755 413.983 485.207 416.369C487.692 418.755 488.934 422.036 488.934 426.211C488.934 431.877 486.582 436.417 481.876 439.83C477.172 443.21 470.959 444.9 463.238 444.9C455.384 444.9 449.172 443.243 444.599 439.929C440.026 436.582 437.557 432.059 437.192 426.36H454.29C454.555 428.447 455.501 430.071 457.124 431.231C458.78 432.391 460.934 432.97 463.586 432.97C466.038 432.97 467.959 432.556 469.351 431.728C470.776 430.866 471.488 429.69 471.488 428.199C471.488 427.039 471.007 426.111 470.047 425.415C469.119 424.72 467.561 424.14 465.374 423.676L454.986 421.489C449.586 420.362 445.476 418.407 442.659 415.624C439.876 412.84 438.484 409.344 438.484 405.136Z" fill="white"/>
<path d="M434.704 388.385V443.706H417.556V433.268H417.208C415.948 436.88 413.827 439.68 410.846 441.668C407.896 443.656 404.35 444.65 400.208 444.65C394.143 444.65 389.239 442.795 385.496 439.084C381.752 435.372 379.879 430.303 379.879 423.874V388.385H397.475V419.997C397.475 423.278 398.352 425.813 400.108 427.602C401.898 429.391 404.268 430.286 407.216 430.286C410.1 430.286 412.452 429.309 414.275 427.353C416.131 425.365 417.058 422.781 417.058 419.6V388.385H434.704Z" fill="white"/>
<path d="M346.573 443.706H328.332V371.983H377.142V386.695H346.573V402.998H374.359V416.965H346.573V443.706Z" fill="white"/>
</svg>
